<svg width="40" height="40" viewBox="0 0 40 40" fill="none" xmlns="http://www.w3.org/2000/svg">
<path d="M20 23.166L20 34.7771" stroke="#616161" stroke-width="1.3"/>
<path d="M12.084 8.91602H27.9173" stroke="#c7273b" stroke-width="1.3"/>
<circle cx="6.80599" cy="21.5833" r="0.933333" stroke="#616161" stroke-width="1.3"/>
<circle cx="33.1947" cy="21.5833" r="0.933333" stroke="#616161" stroke-width="1.3"/>
<mask id="path-5-inside-1_10495_39119" fill="white">
<path d="M6.27734 23.043L7.3329 23.043V25.2778H6.27734V23.043Z"/>
</mask>
<path d="M6.27734 23.043L7.3329 23.043V25.2778H6.27734V23.043Z" fill="#616161"/>
<path d="M6.27734 23.043L6.27734 21.743L4.97734 21.743V23.043H6.27734ZM7.3329 23.043H8.6329V21.743L7.3329 21.743L7.3329 23.043ZM7.3329 25.2778V26.5778H8.6329V25.2778H7.3329ZM6.27734 25.2778H4.97734V26.5778H6.27734V25.2778ZM6.27734 24.343L7.3329 24.343L7.3329 21.743L6.27734 21.743L6.27734 24.343ZM6.0329 23.043V25.2778H8.6329V23.043H6.0329ZM7.3329 23.9778H6.27734V26.5778H7.3329V23.9778ZM7.57734 25.2778V23.043H4.97734V25.2778H7.57734Z" fill="#616161" mask="url(#path-5-inside-1_10495_39119)"/>
<mask id="path-7-inside-2_10495_39119" fill="white">
<path d="M32.666 23.043L33.7216 23.043V25.2778H32.666V23.043Z"/>
</mask>
<path d="M32.666 23.043L33.7216 23.043V25.2778H32.666V23.043Z" fill="#616161"/>
<path d="M32.666 23.043L32.666 21.743L31.366 21.743V23.043H32.666ZM33.7216 23.043H35.0216V21.743L33.7216 21.743L33.7216 23.043ZM33.7216 25.2778V26.5778H35.0216V25.2778H33.7216ZM32.666 25.2778H31.366V26.5778H32.666V25.2778ZM32.666 24.343L33.7216 24.343L33.7216 21.743L32.666 21.743L32.666 24.343ZM32.4216 23.043V25.2778H35.0216V23.043H32.4216ZM33.7216 23.9778H32.666V26.5778H33.7216V23.9778ZM33.966 25.2778V23.043H31.366V25.2778H33.966Z" fill="#616161" mask="url(#path-7-inside-2_10495_39119)"/>
<path d="M12.2402 24.5352V33.7135M27.7574 24.5393V33.7465" stroke="#3A3F47" stroke-width="1.3"/>
<path d="M27.7955 9.44444V34.4318L12.2066 34.4566V9.44444C12.2066 5.13969 15.6963 1.65 20.0011 1.65C24.3058 1.65 27.7955 5.13969 27.7955 9.44444Z" stroke="#c7273b" stroke-width="1.3"/>
<rect x="3.76133" y="34.3727" width="32.4778" height="3.97778" rx="1.98889" stroke="#616161" stroke-width="1.3"/>
<path d="M6.92734 23.816H33.0718V34.4208H6.92734V23.816Z" stroke="#616161" stroke-width="1.3"/>
</svg>
