<svg width="40" height="40" viewBox="0 0 40 40" fill="none" xmlns="http://www.w3.org/2000/svg">
<path d="M12.8122 30.7281L11.4755 35.2686C10.6125 35.4409 9.96021 36.2034 9.96021 37.1154C9.96021 38.1543 10.8055 38.9996 11.8444 38.9996C12.8833 38.9996 13.7286 38.1543 13.7286 37.1154C13.7286 36.2902 13.1921 35.5948 12.4523 35.3403L13.8367 30.6376C15.9305 30.462 17.9282 30.3769 19.8167 30.3615V33.2408C19.0102 33.4542 18.4113 34.1832 18.4113 35.0562C18.4113 36.0951 19.2566 36.9411 20.2955 36.9411C21.3344 36.9411 22.1797 36.0955 22.1797 35.0562C22.1797 34.1839 21.5804 33.4545 20.7743 33.2408L20.7739 30.3568C22.8835 30.3655 24.8454 30.4583 26.6381 30.6029L28.0328 35.3404C27.293 35.5951 26.7559 36.2905 26.7559 37.1154C26.7559 38.1543 27.6012 38.9996 28.6408 38.9996C29.6797 38.9996 30.525 38.1543 30.525 37.1154C30.525 36.2027 29.8727 35.4402 29.0097 35.2687L27.6623 30.6928L27.3743 29.7086L25.4978 23.3347C30.5948 21.2709 34.2013 16.272 34.2013 10.4436C34.2013 10.1788 33.9869 9.96484 33.7225 9.96484L6.87033 9.96518C6.60627 9.96518 6.3916 10.1792 6.3916 10.4439C6.3916 16.2363 9.95264 21.2104 15.0002 23.2974L13.103 29.7425L12.8122 30.7281ZM12.772 37.1154C12.772 37.6262 12.356 38.0425 11.8449 38.0425C11.3338 38.0425 10.9178 37.6265 10.9178 37.1154C10.9178 36.6043 11.3338 36.188 11.8449 36.188C12.356 36.188 12.772 36.6039 12.772 37.1154ZM21.2228 35.0559C21.2228 35.567 20.8068 35.9834 20.2957 35.9834C19.7845 35.9834 19.3686 35.5674 19.3686 35.0559C19.3686 34.5442 19.7845 34.1285 20.2957 34.1285C20.8071 34.1285 21.2228 34.5445 21.2228 35.0559ZM29.5677 37.1154C29.5677 37.6262 29.1517 38.0425 28.6406 38.0425C28.1295 38.0425 27.7132 37.6265 27.7132 37.1154C27.7132 36.6043 28.1291 36.188 28.6406 36.188C29.1517 36.188 29.5677 36.6039 29.5677 37.1154ZM26.3499 29.6238C24.6317 29.4936 22.7692 29.4105 20.7745 29.4021V24.3351C22.1035 24.2897 23.3858 24.0581 24.5956 23.6638L26.3499 29.6238ZM7.3602 10.9221H33.2296C32.9765 17.8395 27.273 23.3902 20.2949 23.3902C13.3167 23.3902 7.61317 17.8395 7.3602 10.9221ZM15.8991 23.6312C17.1372 24.0451 18.4519 24.2888 19.8166 24.3352V29.4059C18.0132 29.4202 16.1144 29.4953 14.1267 29.6522L15.8991 23.6312Z" fill="#616161" stroke="#616161" stroke-width="0.35"/>
<path d="M22.3998 4.9001C22.9086 4.7432 23.3262 4.39768 23.5753 3.9266C23.8246 3.45623 23.8747 2.91644 23.7185 2.40768C23.5619 1.89892 23.2164 1.48127 22.7453 1.23224C22.2743 0.983525 21.7345 0.932785 21.2264 1.08869C20.9737 1.1668 20.8321 1.43454 20.9099 1.68692C20.9874 1.93997 21.2554 2.08085 21.5082 2.00373C21.7729 1.92194 22.0526 1.94865 22.2977 2.07784C22.5424 2.2077 22.7217 2.42436 22.8035 2.68843C22.8849 2.9535 22.8585 3.23391 22.7287 3.47862C22.5988 3.72332 22.3821 3.90326 22.1181 3.98438C21.6093 4.14095 21.1917 4.48647 20.9423 4.95754C20.6929 5.42792 20.6428 5.96736 20.7991 6.47646C21.0628 7.33279 21.8533 7.88359 22.7057 7.88359C22.8996 7.88359 23.0966 7.85488 23.2915 7.79512C23.5443 7.71701 23.6858 7.44927 23.608 7.19689C23.5299 6.94418 23.2612 6.80163 23.0098 6.88008C22.4656 7.049 21.8827 6.7412 21.7138 6.19472C21.6324 5.92965 21.6587 5.64923 21.7886 5.40519C21.9181 5.16115 22.1354 4.98156 22.3998 4.9001Z" fill="#c7273b" stroke="#c7273b" stroke-width="0.35"/>
<path d="M18.3647 4.90028C18.8734 4.74338 19.2911 4.39786 19.5401 3.92678C19.7895 3.45641 19.8396 2.91662 19.6833 2.40786C19.5268 1.8991 19.1812 1.48145 18.7102 1.23242C18.2398 0.983037 17.6993 0.932965 17.1912 1.08886C16.9385 1.16698 16.797 1.43472 16.8748 1.6871C16.9522 1.94015 17.2193 2.08103 17.473 2.00391C17.7377 1.92212 18.0175 1.94883 18.2625 2.07802C18.5072 2.20788 18.6865 2.42454 18.7683 2.6886C18.8498 2.95367 18.8234 3.23409 18.6935 3.4788C18.5637 3.7235 18.347 3.90344 18.0829 3.98456C17.5742 4.14113 17.1565 4.48665 16.9071 4.95772C16.6578 5.4281 16.6077 5.96754 16.7639 6.47664C17.0277 7.33297 17.8182 7.88377 18.6705 7.88377C18.8645 7.88377 19.0614 7.85506 19.2564 7.7953C19.5091 7.71719 19.6506 7.44945 19.5729 7.19707C19.4947 6.94436 19.2263 6.8018 18.9746 6.88026C18.4291 7.04918 17.8475 6.74138 17.6787 6.1949C17.5972 5.92983 17.6236 5.64941 17.7535 5.40537C17.8826 5.16133 18.0999 4.98174 18.3647 4.90028Z" fill="#c7273b" stroke="#c7273b" stroke-width="0.35"/>
<path d="M1.2959 32.3197C11.6715 30.2258 21.2377 28.0641 38.7043 32.3197" stroke="#c7273b" stroke-width="1.3" stroke-linecap="round"/>
</svg>
