<svg width="40" height="40" viewBox="0 0 40 40" fill="none" xmlns="http://www.w3.org/2000/svg">
<path d="M20.0002 7.47656C12.4737 7.47656 5.73295 11.0523 1.20262 16.41C1.06857 16.5684 0.995679 16.7757 1.0002 16.9823C1.00532 17.2278 1.11587 17.4721 1.30383 17.6314C1.64993 17.9245 2.23187 17.8763 2.52497 17.5302C6.75588 12.527 13.0222 9.20367 20.0001 9.20367C26.978 9.20367 33.2449 12.5267 37.4752 17.5302C37.7683 17.8763 38.3503 17.9245 38.6964 17.6314C38.8858 17.4712 39 17.2197 39 16.9769C39 16.7718 38.9307 16.5669 38.7976 16.41C34.2673 11.0525 27.5263 7.47656 20.0002 7.47656ZM20.0002 15.2495C14.6274 15.2495 9.91473 17.6489 6.80249 21.6191C6.47115 21.9655 6.51483 22.5965 6.89135 22.8938C7.26757 23.1911 7.89172 23.0878 8.15198 22.6851C10.9533 19.1117 15.139 16.9767 20.0002 16.9767C24.8615 16.9767 29.047 19.1118 31.8485 22.6847C32.1088 23.0875 32.7329 23.1908 33.1091 22.8935C33.4856 22.5962 33.5296 21.9651 33.198 21.6188C30.0858 17.6487 25.3734 15.2495 20.0002 15.2495ZM20.0002 23.0223C16.7287 23.0223 13.9894 24.717 12.3622 27.3135C12.0787 27.6942 12.1932 28.3072 12.5947 28.5602C12.9966 28.8132 13.5987 28.6515 13.8195 28.2313C15.1707 26.0749 17.3124 24.7495 20.0002 24.7495C22.6879 24.7495 24.8296 26.0749 26.1806 28.231C26.4014 28.6512 27.0035 28.8129 27.4053 28.5599C27.8072 28.3072 27.9216 27.6942 27.6382 27.3135C26.011 24.7167 23.2718 23.0223 20.0002 23.0223ZM20.0002 29.9317C19.2848 29.9317 18.7047 30.5119 18.7047 31.2273C18.7047 31.9427 19.2848 32.5229 20.0002 32.5229C20.7156 32.5229 21.2958 31.943 21.2958 31.2273C21.2958 30.5119 20.7156 29.9317 20.0002 29.9317Z" fill="#616161"/>
<path d="M20.0019 23.0215C16.7304 23.0215 13.9911 24.7162 12.3639 27.3126C12.0804 27.6934 12.1949 28.3064 12.5964 28.5594C12.9982 28.8124 13.6004 28.6506 13.8212 28.2304C15.1724 26.074 17.3141 24.7487 20.0019 24.7487C22.6896 24.7487 24.8313 26.0741 26.1823 28.2301C26.403 28.6503 27.0052 28.8121 27.407 28.5591C27.8088 28.3063 27.9233 27.6933 27.6399 27.3126C26.0126 24.7158 23.2735 23.0215 20.0019 23.0215ZM20.0019 29.9309C19.2865 29.9309 18.7064 30.511 18.7064 31.2264C18.7064 31.9418 19.2865 32.522 20.0019 32.522C20.7173 32.522 21.2975 31.9421 21.2975 31.2264C21.2975 30.511 20.7173 29.9309 20.0019 29.9309Z" fill="#c7273b"/>
</svg>
