<svg width="40" height="40" viewBox="0 0 40 40" fill="none" xmlns="http://www.w3.org/2000/svg">
<path d="M14.6233 20.8323V30.8199V32.2643C14.7857 32.1018 14.9389 31.9487 15.1017 31.7858H8.14669C7.53444 31.7858 7.53444 32.7424 8.14669 32.7424H15.1017C15.36 32.7424 15.5802 32.5225 15.5802 32.2639V22.2763V20.8319C15.5799 20.22 14.6233 20.22 14.6233 20.8323Z" fill="#616161" stroke="#616161" stroke-width="0.38"/>
<path d="M34.7484 14.6901C34.0884 16.1728 33.4281 17.6556 32.7681 19.1384C32.5002 19.7409 32.2419 20.3438 31.9647 20.9368C31.7064 21.482 31.2853 21.9317 30.6731 22.0561C30.233 22.1519 29.8503 22.0274 29.4582 21.8553C28.6164 21.4823 27.7839 21.1092 26.9422 20.7359C26.3873 20.4873 25.8995 21.3098 26.4637 21.5587C27.2578 21.9127 28.0612 22.2667 28.8553 22.6208C29.2667 22.8026 29.6684 22.9938 30.1276 23.0418C30.8833 23.1089 31.6297 22.8123 32.1749 22.2958C32.7201 21.7793 32.9783 21.0042 33.275 20.3252C33.7247 19.3113 34.1839 18.2877 34.6332 17.2736C34.9489 16.5753 35.2552 15.8672 35.5708 15.1689C35.8198 14.623 34.9969 14.1352 34.7484 14.6901Z" fill="#616161" stroke="#616161" stroke-width="0.38"/>
<path d="M25.0028 24.7263C22.831 23.7601 20.6499 22.7938 18.4785 21.8181C14.9294 20.2397 11.3707 18.6518 7.82123 17.0732C6.94102 16.6809 6.0609 16.2985 5.19035 15.9061C4.4156 15.5521 3.96583 14.7964 4.14768 13.9356C4.23376 13.5432 4.4443 13.1702 4.60679 12.8068C6.0035 9.67849 7.39082 6.55049 8.78744 3.41284C9.07439 2.7719 9.42839 2.17868 10.1555 1.98743C10.5859 1.88233 10.9686 1.96841 11.3513 2.14058C12.1644 2.50426 12.9871 2.86761 13.8003 3.23134C17.1105 4.70441 20.4203 6.17782 23.7401 7.6509C27.2414 9.21041 30.7331 10.7598 34.2342 12.3194C35.2963 12.7881 36.3579 13.2666 37.4103 13.735C37.5921 13.8114 37.9078 14.0413 38.1086 14.0507C38.1277 14.0507 38.1563 14.0794 38.166 14.0794C38.2137 14.0603 38.2234 13.6296 38.2137 13.6203C38.1754 13.5916 37.9458 13.6776 37.8981 13.6873C37.6876 13.735 37.477 13.7831 37.2762 13.8211C36.023 14.089 34.7795 14.3663 33.5263 14.6342C32.5601 14.8448 31.5937 15.0553 30.6181 15.2655C29.9869 15.3993 29.2979 15.4854 28.6856 15.6866C28.3126 15.811 28.2265 16.2127 28.0734 16.5381C27.748 17.2554 27.4227 17.9824 27.1071 18.7001C26.3324 20.4317 25.5573 22.1631 24.7826 23.8947C24.6391 24.22 24.4859 24.5547 24.3425 24.88C24.0939 25.4348 24.9164 25.9226 25.1653 25.3584C26.342 22.7372 27.5185 20.1161 28.6857 17.4949C28.8481 17.1313 29.0206 16.7582 29.1831 16.3949C29.0874 16.4713 28.9919 16.5383 28.8962 16.6147C31.2782 16.0982 33.6604 15.5721 36.0424 15.0552C36.8171 14.8831 37.6112 14.7489 38.3863 14.5481C39.0175 14.3759 39.2665 13.5819 38.6255 13.2278C38.128 12.9505 37.5634 12.759 37.047 12.5295C34.3398 11.324 31.6325 10.1188 28.9249 8.91333C25.5383 7.41121 22.1613 5.89979 18.775 4.39802C16.5555 3.41275 14.3267 2.41775 12.1073 1.43248C11.9448 1.36542 11.7916 1.28901 11.6288 1.22195C10.7583 0.839245 9.78238 0.925327 9.00758 1.48987C8.08903 2.15951 7.70671 3.47979 7.26656 4.48411C6.0037 7.3158 4.74117 10.1378 3.48796 12.9696C2.85669 14.3853 3.20101 16.0499 4.70282 16.7293C5.46822 17.0736 6.23363 17.4086 6.9987 17.7529C10.1748 19.1685 13.3415 20.5749 16.5174 21.9909C19.0525 23.1197 21.5779 24.2488 24.1134 25.3678C24.2472 25.4252 24.3813 25.4923 24.5151 25.5497C25.07 25.8076 25.5578 24.9848 25.0029 24.7265L25.0028 24.7263Z" fill="#c7273b" stroke="#c7273b" stroke-width="0.38"/>
<path d="M5.42004 38.0548H1.47855L1.95701 38.5333V27.9144V26.4123C1.79453 26.5748 1.64138 26.728 1.47855 26.8908H4.6162C5.04661 26.8908 5.51536 26.8431 5.93646 26.9579C6.83563 27.1874 7.47659 27.9912 7.50528 28.9094C7.57235 30.9948 7.50528 33.0901 7.50528 35.1852C7.50528 35.4914 7.5243 35.7974 7.50528 36.1037C7.43822 37.2034 6.51037 38.0262 5.41995 38.0549C4.8077 38.074 4.8077 39.0309 5.41995 39.0115C7.22803 38.9638 8.46219 37.5288 8.46219 35.7781V32.0949C8.46219 31.0616 8.48121 30.0286 8.46219 28.9953C8.42382 27.2159 7.02713 25.9436 5.27646 25.934C4.01359 25.9243 2.74133 25.934 1.47846 25.934C1.22022 25.934 1 26.1539 1 26.4124V37.0313V38.5334C1 38.7916 1.21988 39.0119 1.47846 39.0119H5.41995C6.04155 39.0115 6.04155 38.0549 5.41995 38.0549L5.42004 38.0548Z" fill="#616161"/>
<path d="M5.41995 38.0549C6.51037 38.0262 7.43822 37.2034 7.50528 36.1037C7.5243 35.7974 7.50528 35.4914 7.50528 35.1852C7.50528 33.0901 7.57235 30.9948 7.50528 28.9094C7.47659 27.9912 6.83563 27.1874 5.93646 26.9579C5.51536 26.8431 5.04661 26.8908 4.6162 26.8908H1.47855C1.64138 26.728 1.79453 26.5748 1.95701 26.4123V27.9144V38.5333L1.47855 38.0548H5.42004L5.41995 38.0549ZM5.41995 38.0549C4.8077 38.074 4.8077 39.0309 5.41995 39.0115C7.22803 38.9638 8.46219 37.5288 8.46219 35.7781V32.0949C8.46219 31.0616 8.48121 30.0286 8.46219 28.9953C8.42382 27.2159 7.02713 25.9436 5.27646 25.934C4.01359 25.9243 2.74133 25.934 1.47846 25.934C1.22022 25.934 1 26.1539 1 26.4124V37.0313V38.5334C1 38.7916 1.21988 39.0119 1.47846 39.0119H5.41995C6.04155 39.0115 6.04155 38.0549 5.41995 38.0549Z" stroke="#616161" stroke-width="0.38"/>
</svg>
