<svg width="40" height="40" viewBox="0 0 40 40" fill="none" xmlns="http://www.w3.org/2000/svg">
<path d="M27.4118 24.7773V25.1703L27.7598 25.3529C30.0391 26.5484 31.4776 28.8856 31.4773 31.4444V31.4445C31.4773 35.2415 28.3331 38.35 24.4465 38.35C20.5602 38.35 17.4156 35.2418 17.4156 31.4445C17.4156 28.8857 18.8545 26.5481 21.1344 25.3521L21.4825 25.1695V24.7765V4.55566C21.4825 2.96412 22.8029 1.65 24.4471 1.65C26.0913 1.65 27.4118 2.96412 27.4118 4.55566V24.7773Z" stroke="#c7273b" stroke-width="1.3"/>
<path d="M24.4463 20V28.0668" stroke="#c7273b" stroke-width="1.3" stroke-linecap="round"/>
<circle cx="24.4464" cy="30.9571" r="2.87745" stroke="#c7273b" stroke-width="1.3"/>
<path d="M18.9984 13.1672V6.94299V6.36426V2.60391C18.9984 2.54868 18.9536 2.50391 18.8984 2.50391H18.7102C18.6549 2.50391 18.6102 2.54868 18.6102 2.60391V6.10461C18.6102 6.19614 18.4974 6.23957 18.436 6.17168L15.6531 3.09466C15.6161 3.05371 15.5529 3.05053 15.5119 3.08755L15.3722 3.21382C15.3312 3.25086 15.3281 3.31411 15.3651 3.35508L18.5843 6.91442C18.601 6.93281 18.6102 6.95671 18.6102 6.9815V12.9933C18.6102 13.0704 18.5267 13.1185 18.46 13.0798L13.2597 10.064C13.2383 10.0516 13.2222 10.0317 13.2146 10.0081L11.75 5.43736C11.7332 5.38478 11.6769 5.3558 11.6243 5.37263L11.4452 5.42996C11.3926 5.44679 11.3636 5.50311 11.3804 5.55572L12.6468 9.50727C12.6748 9.59444 12.5806 9.67022 12.5014 9.62429L9.47274 7.86773C9.42496 7.84002 9.36376 7.85629 9.33606 7.90408L9.24174 8.06675C9.21404 8.11452 9.23031 8.17571 9.27808 8.20341L12.3066 9.95976C12.3857 10.0057 12.3667 10.125 12.2772 10.1441L8.21891 11.0077C8.16489 11.0192 8.13041 11.0723 8.14191 11.1263L8.18103 11.3102C8.19253 11.3642 8.24563 11.3986 8.29965 11.3871L12.9938 10.3884C13.0181 10.3833 13.0434 10.3873 13.0648 10.3997L18.2687 13.4174C18.3351 13.4559 18.3351 13.5519 18.2687 13.5904L13.0648 16.6081C13.0434 16.6205 13.0181 16.6245 12.9938 16.6194L8.29967 15.6202C8.24565 15.6087 8.19253 15.6431 8.18104 15.6972L8.14189 15.8812C8.13041 15.9353 8.16487 15.9884 8.21888 15.9999L12.2772 16.8637C12.3668 16.8828 12.3858 17.0021 12.3066 17.048L9.27808 18.8044C9.23031 18.8321 9.21404 18.8933 9.24174 18.9411L9.33606 19.1037C9.36376 19.1515 9.42496 19.1678 9.47274 19.1401L12.5014 17.3835C12.5806 17.3376 12.6748 17.4134 12.6468 17.5005L11.3804 21.4521C11.3636 21.5047 11.3926 21.561 11.4452 21.5779L11.6243 21.6352C11.6769 21.652 11.7332 21.623 11.75 21.5705L13.2146 16.9998C13.2222 16.9762 13.2383 16.9562 13.2597 16.9438L18.46 13.928C18.5267 13.8893 18.6102 13.9374 18.6102 14.0145V20.0263C18.6102 20.0511 18.601 20.075 18.5843 20.0934L15.3651 23.6527C15.3281 23.6937 15.3312 23.757 15.3722 23.794L15.5119 23.9203C15.5529 23.9573 15.6161 23.9541 15.6531 23.9131L18.436 20.8361C18.4974 20.7682 18.6102 20.8117 18.6102 20.9032V24.4039C18.6102 24.4591 18.6549 24.5039 18.7102 24.5039H18.8984C18.9536 24.5039 18.9984 24.4591 18.9984 24.4039V20.6436V20.0648V13.8406V13.1672Z" stroke="#616161"/>
</svg>
