<svg width="40" height="40" viewBox="0 0 40 40" fill="none" xmlns="http://www.w3.org/2000/svg">
<path d="M2.73242 37.9766H39.0007V38.8422H2.73242V37.9766Z" fill="#c7273b" stroke="#c7273b" stroke-width="0.4" stroke-linejoin="round"/>
<path d="M33.5851 34.5544H6.4147C5.22886 34.5544 4.26367 33.5896 4.26367 32.4033V27.5285C4.26367 26.2715 4.8328 25.1088 5.82574 24.3378L6.3114 23.961C6.46535 23.8417 6.58529 23.6828 6.65856 23.5022L9.09212 17.479C9.66867 16.051 11.0366 15.1289 12.5764 15.1289H27.4223C28.9621 15.1289 30.3304 16.0517 30.9066 17.479L33.3402 23.5022C33.4134 23.6831 33.5331 23.8417 33.6873 23.9613L34.173 24.3382C35.166 25.1088 35.7354 26.2719 35.7354 27.5288V32.404C35.7357 33.5892 34.7706 34.5543 33.5847 34.5543L33.5851 34.5544ZM12.5765 15.9936C11.391 15.9936 10.3387 16.7037 9.89441 17.8024L7.46085 23.8257C7.33071 24.1478 7.11677 24.4313 6.84195 24.644L6.35629 25.0214C5.57633 25.627 5.12931 26.5408 5.12931 27.5283V32.4034C5.12931 33.1123 5.70586 33.6888 6.4147 33.6888H33.5851C34.2939 33.6888 34.8705 33.1123 34.8705 32.4034L34.8708 27.5283C34.8708 26.5406 34.4231 25.6271 33.6435 25.0214L33.1578 24.6446C32.883 24.4313 32.6691 24.1481 32.5389 23.8256L30.1053 17.8024C29.6614 16.7033 28.6088 15.9933 27.4232 15.9933H12.5765L12.5765 15.9936Z" fill="#616161" stroke="#616161" stroke-width="0.4"/>
<path d="M10.6272 38.4112H8.19298C7.44393 38.4112 6.83398 37.8013 6.83398 37.0522V34.1203C6.83398 33.8813 7.02781 33.6875 7.26679 33.6875H11.5533C11.7923 33.6875 11.9861 33.8813 11.9861 34.1203V37.0522C11.9861 37.8012 11.3765 38.4112 10.6272 38.4112ZM7.69993 34.5531V37.0522C7.69993 37.3246 7.92097 37.5456 8.19332 37.5456H10.6275C10.8999 37.5456 11.1209 37.3246 11.1209 37.0522V34.5531H7.69993Z" fill="#616161" stroke="#616161" stroke-width="0.4"/>
<path d="M31.8049 38.4112H29.3707C28.6217 38.4112 28.0117 37.8013 28.0117 37.0522V34.1203C28.0117 33.8813 28.2055 33.6875 28.4445 33.6875H32.7311C32.97 33.6875 33.1639 33.8813 33.1639 34.1203V37.0522C33.1639 37.8012 32.5543 38.4112 31.8049 38.4112ZM28.8777 34.5531V37.0522C28.8777 37.3246 29.0987 37.5456 29.3711 37.5456H31.8052C32.0776 37.5456 32.2986 37.3246 32.2986 37.0522V34.5531H28.8777Z" fill="#616161" stroke="#616161" stroke-width="0.4"/>
<path d="M6.83398 23.6133H33.1639V24.4789H6.83398V23.6133Z" fill="#616161" stroke="#616161" stroke-width="0.4"/>
<path d="M11.1576 31.2192H8.52433C8.06587 31.2192 7.69336 30.8466 7.69336 30.3882V28.7411C7.69336 28.2827 8.06587 27.9102 8.52433 27.9102H11.1576C11.616 27.9102 11.9885 28.2827 11.9885 28.7411V30.3882C11.9876 30.847 11.6148 31.2192 11.1576 31.2192ZM8.55892 30.3535H11.1229V28.7756H8.55892V30.3535Z" fill="#616161" stroke="#616161" stroke-width="0.4"/>
<path d="M31.4759 31.2192H28.8427C28.3842 31.2192 28.0117 30.8466 28.0117 30.3882V28.7411C28.0117 28.2827 28.3842 27.9102 28.8427 27.9102H31.4759C31.9344 27.9102 32.3069 28.2827 32.3069 28.7411V30.3882C32.3063 30.847 31.9331 31.2192 31.4759 31.2192ZM28.8776 30.3535H31.4416V28.7756H28.8776V30.3535Z" fill="#616161" stroke="#616161" stroke-width="0.4"/>
<path d="M15.2207 29.1289H24.7792V29.9945H15.2207V29.1289Z" fill="#616161" stroke="#616161" stroke-width="0.4"/>
<path d="M38.5668 14.2529C38.5038 14.2529 38.4401 14.239 38.381 14.2109L20 5.4683L1.6189 14.2109C1.48473 14.2746 1.32707 14.2653 1.20156 14.1859C1.07605 14.1067 1 13.9685 1 13.8201V10.4202C1 10.2533 1.09614 10.1012 1.247 10.0295L19.8141 1.19822C19.9318 1.14226 20.0682 1.14226 20.1859 1.19822L38.753 10.0295C38.9042 10.1012 39 10.2533 39 10.4202V13.8201C39 13.9685 38.924 14.1067 38.7984 14.1859C38.7283 14.2304 38.6472 14.2529 38.5668 14.2529ZM19.9998 4.5567C20.0635 4.5567 20.1272 4.57061 20.1856 4.59875L38.1338 13.1356V10.6943L19.9996 2.0688L1.86545 10.6935V13.1348L19.8136 4.59795C19.8721 4.57013 19.9361 4.5567 19.9998 4.5567Z" fill="#c7273b" stroke="#c7273b" stroke-width="0.4"/>
</svg>
