<svg width="40" height="40" viewBox="0 0 40 40" fill="none" xmlns="http://www.w3.org/2000/svg">
<path d="M11.5862 34.8127C11.7302 34.9194 11.9153 34.9544 12.0883 34.9081L30.5342 29.7649C30.7806 29.6929 30.95 29.4668 30.9503 29.2104V10.7833C30.9516 10.5259 30.7816 10.2995 30.5342 10.2288L12.0883 5.08531C11.9129 5.03663 11.7249 5.07431 11.5815 5.18634C11.4381 5.29871 11.3564 5.47209 11.3618 5.65415V34.3345C11.3544 34.5208 11.4381 34.6993 11.5862 34.8127ZM12.5088 6.39018L29.8032 11.2179V28.7752L12.5088 33.5983V6.39018Z" fill="#616161"/>
<path d="M3.43289 38.4362L8.89189 38.9887C8.96476 39.0038 9.04007 39.0038 9.11294 38.9887L33.5207 32.1635C33.7788 32.0899 33.9568 31.8542 33.9578 31.5858V20.6178C34.2914 20.6854 34.5611 20.9303 34.6609 21.2554L35.9115 25.2028C36.0114 25.5261 36.354 25.7072 36.6773 25.607C37.0003 25.5072 37.1814 25.1646 37.0816 24.8412L35.831 20.889C35.708 20.4812 35.466 20.12 35.1356 19.8514C34.8053 19.5827 34.402 19.4194 33.9778 19.3823V8.40886C33.9775 8.13912 33.7995 7.90196 33.541 7.82628L9.13327 1.02627C9.05795 1.00525 8.98018 0.996847 8.90206 1.00105L3.43293 1.55351C3.12395 1.58469 2.88923 1.84567 2.89063 2.15641V37.8389C2.89168 38.1475 3.12601 38.4054 3.43289 38.4362ZM8.35488 37.723L6.84814 37.5675V2.4168L8.35488 2.26617V37.723ZM32.7527 19.3921H32.4665C32.1337 19.3921 31.8636 19.6619 31.8636 19.9947C31.8636 20.3275 32.1337 20.5972 32.4665 20.5972H32.7527V31.1438L9.5602 37.5973V2.41707L32.7527 8.86535V19.3921ZM4.1264 2.6988L6.84814 2.4168V37.5675L4.1264 37.2917V2.6988Z" fill="#c7273b"/>
<path d="M15.109 14.639C15.2691 14.6394 15.4225 14.5763 15.5361 14.4635L17.3339 12.6657V12.6653C17.5697 12.4295 17.5697 12.0474 17.3339 11.8116C17.0981 11.5758 16.7159 11.5758 16.4802 11.8116L14.6823 13.6094H14.682C14.5142 13.7835 14.4655 14.0407 14.558 14.2642C14.6508 14.4877 14.8673 14.6352 15.109 14.639Z" fill="#616161"/>
<path d="M20.1679 12.8074L15.5777 17.3928C15.4642 17.5059 15.4004 17.6594 15.4004 17.8198C15.4004 17.9799 15.4641 18.1333 15.5777 18.2465C15.8155 18.4774 16.1939 18.4774 16.4314 18.2465L21.0167 13.6562C21.216 13.417 21.1999 13.0649 20.9796 12.8445C20.7592 12.6242 20.4075 12.6081 20.1679 12.8074Z" fill="#616161"/>
</svg>
