<svg width="40" height="40" viewBox="0 0 40 40" fill="none" xmlns="http://www.w3.org/2000/svg">
<path d="M8.75839 4.50235H12.8098C13.0895 4.50235 13.3163 4.2779 13.3163 4.00117C13.3163 3.72445 13.0895 3.5 12.8098 3.5H8.75839C8.47877 3.5 8.25195 3.72445 8.25195 4.00117C8.25195 4.2779 8.47876 4.50235 8.75839 4.50235Z" fill="#c7273b"/>
<path d="M8.75839 5.80704H12.8098C13.0895 5.80704 13.3163 5.58259 13.3163 5.30586C13.3163 5.02914 13.0895 4.80469 12.8098 4.80469H8.75839C8.47877 4.80469 8.25195 5.02914 8.25195 5.30586C8.25195 5.58259 8.47876 5.80704 8.75839 5.80704Z" fill="#c7273b"/>
<path d="M8.75839 7.10977H12.8098C13.0895 7.10977 13.3163 6.88532 13.3163 6.6086C13.3163 6.33187 13.0895 6.10742 12.8098 6.10742H8.75839C8.47877 6.10742 8.25195 6.33187 8.25195 6.6086C8.25195 6.88532 8.47876 7.10977 8.75839 7.10977Z" fill="#c7273b"/>
<path d="M27.1939 4.50235H31.2454C31.525 4.50235 31.7518 4.2779 31.7518 4.00117C31.7518 3.72445 31.525 3.5 31.2454 3.5H27.1939C26.9143 3.5 26.6875 3.72445 26.6875 4.00117C26.6875 4.2779 26.9143 4.50235 27.1939 4.50235Z" fill="#c7273b"/>
<path d="M27.1939 5.80704H31.2454C31.525 5.80704 31.7518 5.58259 31.7518 5.30586C31.7518 5.02914 31.525 4.80469 31.2454 4.80469H27.1939C26.9143 4.80469 26.6875 5.02914 26.6875 5.30586C26.6875 5.58259 26.9143 5.80704 27.1939 5.80704Z" fill="#c7273b"/>
<path d="M27.1939 7.10977H31.2454C31.525 7.10977 31.7518 6.88532 31.7518 6.6086C31.7518 6.33187 31.525 6.10742 31.2454 6.10742H27.1939C26.9143 6.10742 26.6875 6.33187 26.6875 6.6086C26.6875 6.88532 26.9143 7.10977 27.1939 7.10977Z" fill="#c7273b"/>
<path d="M4.12882 30.5212V9.57031C4.12882 9.01803 4.57654 8.57031 5.12882 8.57031H34.8662C35.4185 8.57031 35.8662 9.01803 35.8662 9.57031V30.5212" stroke="#616161" stroke-width="1.3"/>
<rect width="36" height="5.98024" rx="1" transform="matrix(-1 0 0 1 38 30.5195)" stroke="#616161" stroke-width="1.3"/>
<path d="M18.0432 13.0488H23.2574C23.3247 13.0488 23.3728 13.114 23.353 13.1783L21.6386 18.7448C21.6188 18.8091 21.6669 18.8742 21.7342 18.8742H26.068C26.1534 18.8742 26.1995 18.9743 26.144 19.0392L18.663 27.7775C18.5911 27.8615 18.4562 27.784 18.4926 27.6796L20.9241 20.6983C20.9467 20.6333 20.8985 20.5654 20.8297 20.5654H15.8435C15.7765 20.5654 15.7284 20.5008 15.7477 20.4366L17.9475 13.12C17.9602 13.0778 17.9991 13.0488 18.0432 13.0488Z" stroke="#c7273b"/>
</svg>
