<svg width="23" height="30" viewBox="0 0 23 30" fill="none" xmlns="http://www.w3.org/2000/svg">
<path d="M10.2683 18.7271L10.2523 18.8154H10.3421H13.2238H13.3135L13.2976 18.7271L12.4037 13.77C12.8575 13.623 13.2399 13.3529 13.5502 12.9618C13.876 12.551 14.0398 12.0887 14.0398 11.5772C14.0398 10.9536 13.8193 10.42 13.3798 9.98043C12.9402 9.54091 12.4065 9.32036 11.7829 9.32036C11.1593 9.32036 10.6256 9.54091 10.1861 9.98043C9.74659 10.42 9.52605 10.9536 9.52605 11.5772C9.52605 12.0887 9.6899 12.551 10.0157 12.9618C10.3259 13.3529 10.7084 13.623 11.1622 13.77L10.2683 18.7271ZM11.7605 29.1862L11.7829 29.1933L11.8053 29.1862C14.9783 28.193 17.6192 26.2339 19.7274 23.3128C21.8364 20.3905 22.8909 17.0816 22.8909 13.3886V4.82575V4.77369L22.8421 4.75548L11.8092 0.638717L11.7829 0.628933L11.7567 0.638717L0.723781 4.75548L0.675 4.77369V4.82575V13.3886C0.675 17.0816 1.72949 20.3905 3.83851 23.3128C5.94669 26.2339 8.58755 28.193 11.7605 29.1862ZM18.802 22.403C16.9491 25.1006 14.6095 26.8984 11.7829 27.8009C8.95635 26.8984 6.61679 25.1006 4.76392 22.403C2.9063 19.6986 1.97769 16.6944 1.97769 13.3886V5.66012L11.7829 2.02401L21.5882 5.66012V13.3886C21.5882 16.6944 20.6596 19.6986 18.802 22.403Z" fill="#A0051C" stroke="#A0051C" stroke-width="0.15"/>
</svg>
