<svg width="40" height="40" viewBox="0 0 40 40" fill="none" xmlns="http://www.w3.org/2000/svg">
<path d="M35.2001 1.20703H4.80007C2.78607 1.20703 1 2.63624 1 4.80238V35.2024C1 37.2164 2.63376 38.7946 4.7999 38.7946H35.1999C37.2139 38.7946 39 37.3685 39 35.2024V4.80238C39 2.63624 37.2141 1.20703 35.2001 1.20703ZM12.3419 35.2024C12.3419 36.4564 11.1079 37.4825 9.85386 37.4825H4.80007C3.54607 37.4825 2.31545 36.4565 2.31545 35.2024V4.80238C2.31545 3.54838 3.546 2.52224 4.80007 2.52224H9.85407C11.1081 2.52224 12.3421 3.54831 12.3421 4.80238L12.3419 35.2024ZM37.6876 35.2024C37.6876 36.4564 36.4539 37.4825 35.1999 37.4825H12.8939C13.3879 36.8366 13.6538 36.0766 13.6538 35.2024V4.80238C13.6538 3.92845 13.3877 3.16852 12.8939 2.52224H35.1999C36.4539 2.52224 37.6876 3.54831 37.6876 4.80238V35.2024Z" fill="#616161"/>
<path d="M16.6953 21.3084C16.6953 22.413 17.5907 23.3084 18.6953 23.3084H32.4413C33.5459 23.3084 34.4413 22.413 34.4413 21.3084V7.5625C34.4413 6.45793 33.5459 5.5625 32.4413 5.5625H18.6953C17.5907 5.5625 16.6953 6.45793 16.6953 7.5625V21.3084ZM18.2152 8.0825C18.2152 7.53021 18.6629 7.0825 19.2152 7.0825H31.9212C32.4735 7.0825 32.9212 7.53021 32.9212 8.0825V20.7885C32.9212 21.3408 32.4735 21.7885 31.9212 21.7885H19.2152C18.6629 21.7885 18.2152 21.3408 18.2152 20.7885V8.0825Z" fill="#c7273b"/>
<path d="M25.5977 25.8066C22.9906 25.8066 20.8477 27.9415 20.8477 30.5387C20.8477 33.1362 22.9547 35.3066 25.5977 35.3066C28.2406 35.3066 30.3477 33.1717 30.3477 30.5745C30.3477 27.977 28.2047 25.8066 25.5977 25.8066ZM25.5977 33.8832C23.8119 33.8832 22.2764 32.3534 22.2764 30.5744C22.2764 28.7954 23.8119 27.2656 25.5977 27.2656C27.3834 27.2656 28.919 28.7954 28.919 30.5744C28.919 32.4601 27.3834 33.8832 25.5977 33.8832Z" fill="#c7273b"/>
</svg>
