<svg width="40" height="40" viewBox="0 0 40 40" fill="none" xmlns="http://www.w3.org/2000/svg">
<path d="M1 7.44748V36.6478C1 36.9073 1.20393 37.1112 1.46342 37.1112C1.72291 37.1112 1.92685 36.9073 1.92685 36.6478V33.4032H10.465L10.4837 36.6478C10.4837 36.9073 10.6969 37.1112 10.9471 37.1112C11.2066 37.1112 11.4105 36.898 11.4105 36.6478L11.2252 7.44547C11.2252 7.44547 1.60426 7.46583 1 7.44748ZM1.92708 7.44531H10.2984L10.317 10.2265H1.92663L1.92708 7.44531ZM1.92708 11.1536H10.3262L10.3448 13.9348H1.92742L1.92708 11.1536ZM1.92708 14.8617H10.3445L10.3631 17.6428H1.92663L1.92708 14.8617ZM1.92708 18.57H10.3731L10.3917 21.3512H1.92742L1.92708 18.57ZM1.92708 22.2783H10.3914L10.41 25.0595H1.92742L1.92708 22.2783ZM1.92708 25.9864H10.4192L10.4378 28.7675H1.92742L1.92708 25.9864ZM1.92708 32.4759V29.6947H10.4375L10.4561 32.4759H1.92708Z" fill="#c7273b" stroke="#c7273b" stroke-width="0.38"/>
<path d="M38.5456 32.5152H34.8372C33.4929 32.5152 32.2693 31.6715 31.7965 30.4107L22.4796 5.55656C21.8771 3.93411 20.3009 2.84961 18.5767 2.84961H1.46375C1.20395 2.84961 1.00002 3.05354 1.00002 3.31303C1.00002 4.75478 0.999949 6.12652 1.00009 7.48463L11.2252 7.48479H14.8593C16.2037 7.48479 17.4272 8.32844 17.9 9.5893L27.2169 34.4442C27.8194 36.0666 29.3956 37.1511 31.1199 37.1511H38.5362C38.7957 37.1511 38.9997 36.9472 38.9997 36.6877V32.9794C39.0096 32.7196 38.8054 32.5152 38.5456 32.5152ZM38.0823 36.2235H31.1294C29.785 36.2235 28.5615 35.3799 28.0887 34.119L18.7718 9.2641C18.1693 7.64165 16.5931 6.55715 14.8688 6.55715H1.92686V3.77598H18.5773C19.9217 3.77598 21.1452 4.61963 21.618 5.88045L30.9349 30.7354C31.5374 32.3578 33.1136 33.4423 34.8379 33.4423H38.0825L38.0823 36.2235Z" fill="#616161"/>
<path d="M1.9271 7.48463H10.2984M38.5456 32.5152H34.8372C33.4929 32.5152 32.2693 31.6715 31.7965 30.4107L22.4796 5.55656C21.8771 3.93411 20.3009 2.84961 18.5767 2.84961H1.46375C1.20395 2.84961 1.00002 3.05354 1.00002 3.31303C1.00002 4.75478 0.999949 6.12652 1.00009 7.48463L11.2252 7.48479H14.8593C16.2037 7.48479 17.4272 8.32844 17.9 9.5893L27.2169 34.4442C27.8194 36.0666 29.3956 37.1511 31.1199 37.1511H38.5362C38.7957 37.1511 38.9997 36.9472 38.9997 36.6877V32.9794C39.0096 32.7196 38.8054 32.5152 38.5456 32.5152ZM38.0823 36.2235H31.1294C29.785 36.2235 28.5615 35.3799 28.0887 34.119L18.7718 9.2641C18.1693 7.64165 16.5931 6.55715 14.8688 6.55715H1.92686V3.77598H18.5773C19.9217 3.77598 21.1452 4.61963 21.618 5.88045L30.9349 30.7354C31.5374 32.3578 33.1136 33.4423 34.8379 33.4423H38.0825L38.0823 36.2235Z" stroke="#616161" stroke-width="0.38"/>
</svg>
