<svg width="40" height="40" viewBox="0 0 40 40" fill="none" xmlns="http://www.w3.org/2000/svg">
<path d="M30.5131 1C26.6515 1 23.5265 4.12501 23.5265 7.98591C23.5265 11.8468 26.6515 14.9718 30.5131 14.9718C34.3747 14.9718 37.4997 11.8468 37.4997 7.98591C37.4997 4.12501 34.3747 1 30.5131 1ZM30.5131 1.96893C33.8341 1.96893 36.5308 4.66564 36.5308 7.986C36.5308 11.3064 33.8345 14.0031 30.5131 14.0031C27.1921 14.0031 24.4954 11.3064 24.4954 7.986C24.4954 4.66564 27.1918 1.96893 30.5131 1.96893ZM30.4507 4.46965C30.2051 4.50034 30.0036 4.73786 30.013 4.98548V7.4862H28.0124C27.7481 7.48237 27.5053 7.72197 27.5053 7.98635C27.5053 8.25071 27.7484 8.49032 28.0124 8.48649H30.5132C30.7751 8.48649 31.0133 8.24828 31.0133 7.98635V4.98554C31.0245 4.6964 30.7377 4.43338 30.4507 4.46965ZM9.50687 5.98546C7.81812 5.98546 6.37142 7.04921 5.78686 8.53288C3.46927 9.21299 2.02185 11.6659 2.64507 14.0498L4.98954 22.9891H3.39534C3.17177 23.0393 2.99913 23.2601 3.00471 23.4892V28.4903C3.00087 28.7547 3.24048 28.9974 3.50485 28.9974C3.76923 28.9974 4.00883 28.7543 4.005 28.4903V23.9894H24.0113C25.9599 23.9894 27.5123 25.5422 27.5123 27.49V34.9918H4.0042V28.4368C4.00803 28.1725 3.76843 27.9297 3.50405 27.9297C3.23968 27.9297 3.00008 28.1728 3.00391 28.4368V35.492C3.00391 35.7539 3.24212 35.9922 3.50405 35.9922H6.50486V38.4929C6.50103 38.7573 6.74063 39 7.00501 39C7.26937 39 7.50898 38.7569 7.50515 38.4929V35.9922H24.0106V38.4929C24.0067 38.7573 24.2463 39 24.5107 39C24.7751 39 25.0147 38.7569 25.0108 38.4929V35.9922H28.0117C28.2736 35.9922 28.5118 35.7539 28.5118 35.492V27.4901C28.5118 25.0051 26.4959 22.9892 24.0102 22.9892C23.7645 22.9894 23.5652 22.7903 23.5652 22.5446V22.0799C23.5652 20.8267 21.9857 19.9042 21.1613 19.9042L15.4064 19.904L13.8351 15.2064C13.4571 14.2588 12.694 13.5943 11.8032 13.2529C12.83 12.5288 13.5069 11.3353 13.5069 9.98663C13.5069 7.78305 11.7097 5.98582 9.50583 5.98582L9.50687 5.98546ZM9.50687 6.98573C11.1705 6.98573 12.5077 8.32323 12.5077 9.98654C12.5077 11.6498 11.1702 12.9874 9.50687 12.9874C7.84321 12.9874 6.49035 11.6498 6.49035 9.98654C6.49035 8.32323 7.84321 6.98573 9.50687 6.98573ZM5.52106 9.70511C5.51443 9.79893 5.50536 9.89101 5.50536 9.98657C5.50536 11.765 6.67831 13.2675 8.28751 13.7843C7.13974 14.7198 6.66885 16.3094 7.24019 17.7541L9.31885 22.9895H6.00519C6.00658 22.9421 6.00135 22.8947 5.98949 22.849L3.61368 13.7999C3.1812 12.1463 4.05032 10.4315 5.52106 9.70511ZM10.6162 13.9874C11.6081 14.0118 12.5258 14.6089 12.9139 15.5816L14.329 19.9042H12.9534C12.6915 19.9328 12.4791 20.1972 12.5077 20.4591C12.5363 20.7211 12.8007 20.9331 13.0626 20.9045H20.4796C21.6225 20.9045 22.5403 21.847 22.5101 22.9894H10.3493C10.3511 22.9256 10.3403 22.8618 10.3179 22.8018L8.1775 17.3941C7.66445 16.0974 8.29573 14.6681 9.61545 14.1589C9.94538 14.0316 10.2856 13.9793 10.6162 13.9874Z" fill="#616161" stroke="#616161" stroke-width="0.3"/>
<path d="M30.513 1C26.6514 1 23.5264 4.12501 23.5264 7.98591C23.5264 11.8468 26.6514 14.9718 30.513 14.9718C34.3746 14.9718 37.4996 11.8468 37.4996 7.98591C37.4996 4.12501 34.3746 1 30.513 1ZM30.513 1.96893C33.834 1.96893 36.5307 4.66564 36.5307 7.986C36.5307 11.3064 33.8343 14.0031 30.513 14.0031C27.192 14.0031 24.4953 11.3064 24.4953 7.986C24.4953 4.66564 27.1916 1.96893 30.513 1.96893ZM30.4506 4.46965C30.205 4.50034 30.0034 4.73786 30.0129 4.98548V7.4862H28.0123C27.7479 7.48237 27.5052 7.72197 27.5052 7.98635C27.5052 8.25071 27.7483 8.49032 28.0123 8.48649H30.513C30.775 8.48649 31.0132 8.24828 31.0132 7.98635V4.98554C31.0243 4.6964 30.7376 4.43338 30.4506 4.46965Z" fill="#c7273b" stroke="#c7273b" stroke-width="0.3"/>
</svg>
