<svg width="40" height="40" viewBox="0 0 40 40" fill="none" xmlns="http://www.w3.org/2000/svg">
<path d="M38.9809 27.7535C38.1837 23.2561 38.7488 23.6198 36.7093 23.6142C36.4107 16.4764 31.6107 10.4284 24.9839 8.35655C24.8361 8.16011 23.6878 5.8355 23.4649 5.81288C22.3811 5.51189 21.1851 5.63264 20.0497 5.57227C15.5081 5.76605 16.9317 5.09634 14.9879 8.3569C8.17258 10.4924 3.54446 16.6812 3.26248 23.6145C1.37731 23.5618 1.68598 23.6976 1.36494 25.4664C0.896674 28.5122 0.637504 27.9405 2.13623 29.1722C3.92392 30.5891 6.10419 31.7465 8.17929 32.5441C17.3149 36.0864 29.608 35.1982 37.3028 29.5771C37.8386 29.133 39.175 28.322 38.9809 27.7535ZM17.2697 7.10062C19.0312 6.80975 20.9761 6.84933 22.7322 7.10062L23.8801 8.9868L22.7114 16.2149L17.279 16.2149L16.112 8.9868L17.2697 7.10062ZM33.6806 30.1375C24.2435 34.9898 10.0896 34.0889 2.46262 27.5938L2.88024 25.0389C3.63947 25.0089 4.61281 25.2554 4.67381 24.3321C4.67381 19.288 7.20723 14.6213 11.1922 11.806C11.1922 11.806 13.1964 22.0431 13.237 22.2504C13.3463 22.8881 14.2905 23.0957 14.6051 22.365C14.681 22.1889 14.6307 21.9389 14.6345 21.9727C14.5721 21.6526 12.4842 10.9892 12.4837 10.9862C13.2147 10.5724 13.9842 10.2169 14.7882 9.92653C14.7882 9.92653 15.7192 15.1337 15.9901 16.6461C16.1 18.1136 17.0321 17.5267 20.0344 17.6392C24.0442 17.5791 23.7411 18.0503 24.0674 16.169C24.409 14.2606 25.1836 9.92833 25.1841 9.92622C25.9882 10.2166 26.7577 10.5721 27.4887 10.9859L25.3364 21.9792C25.2607 22.3656 25.5125 22.7399 25.8989 22.8156C25.9454 22.8245 25.9914 22.8292 26.0364 22.8292C26.3704 22.8292 26.6684 22.5933 26.7353 22.2534L28.781 11.806C32.2409 14.2518 34.6173 18.1002 35.1727 22.3801C35.5105 24.7821 34.7392 25.1273 37.0933 25.0386L37.5103 27.5936C36.4091 28.5398 35.122 29.3948 33.6806 30.1375Z" fill="#c7273b"/>
<path d="M13.8184 26.0477C18.9731 27.0605 24.7511 26.7583 29.6023 25.1607C29.8535 25.0861 30.1005 25.1368 30.286 25.297C31.0243 26.1802 30.0625 26.5867 29.2296 26.7681C26.4875 27.5709 23.6448 27.9871 20.7627 28.0507C17.668 28.114 14.6392 27.7895 11.652 27.0137C10.941 26.7342 8.84851 26.6418 9.61897 25.3878C10.1249 24.7663 10.6324 25.4413 13.8184 26.0477Z" fill="#616161"/>
<path d="M16.8087 6.4921C18.7757 5.98914 20.9952 6.01689 23.173 6.50558C23.2151 6.51503 23.2615 6.54448 23.2941 6.59843L24.561 8.69616C24.5886 8.74183 24.599 8.79583 24.5905 8.8485L23.3106 16.7393C23.2929 16.8483 23.1989 16.9283 23.0885 16.9283H16.8364C16.7253 16.9283 16.6309 16.8473 16.614 16.7375L15.401 8.84911C15.393 8.79721 15.4034 8.74416 15.4304 8.69913L16.7031 6.57862C16.7348 6.52571 16.7764 6.50036 16.8087 6.4921Z" stroke="#616161" stroke-width="1.55"/>
</svg>
