<svg width="40" height="40" viewBox="0 0 40 40" fill="none" xmlns="http://www.w3.org/2000/svg">
<path d="M23.6647 16.2787C23.932 16.3585 24.2087 16.4015 24.4877 16.4059C26.5906 16.4059 28.8086 14.2491 29.707 11.1625C30.7046 7.67093 29.6312 4.28254 27.3217 3.61534C25.0123 2.94815 22.2774 5.244 21.2795 8.73157C20.2818 12.2193 21.3472 15.6074 23.6647 16.2787Z" stroke="#c7273b" stroke-width="1.3"/>
<path d="M8.3293 23.1671C6.49286 23.1671 4.35417 21.6736 3.07006 19.2783C1.41243 16.2277 1.7144 12.8554 3.74191 11.7546C4.75153 11.2104 6.01178 11.2938 7.29554 12.0009C8.62763 12.7834 9.71092 13.9264 10.42 15.2978C12.0737 18.3446 11.7715 21.7208 9.74425 22.8173C9.30919 23.0506 8.82292 23.171 8.3293 23.1671Z" stroke="#c7273b" stroke-width="1.3"/>
<path d="M30.2562 22.8209C30.6915 23.0525 31.1782 23.1714 31.6712 23.1664C33.5157 23.1664 35.6305 21.6727 36.9304 19.2776C38.5879 16.2272 38.2858 12.8549 36.2585 11.7546C34.2274 10.6585 31.2342 12.2511 29.5804 15.2979C27.9268 18.3442 28.2289 21.7206 30.2562 22.8209Z" stroke="#c7273b" stroke-width="1.3"/>
<path d="M10.4406 11.1623C11.331 14.249 13.5489 16.4058 15.6519 16.4058C15.9267 16.4002 16.1992 16.3573 16.4626 16.2786C18.7921 15.6113 19.8575 12.2151 18.8479 8.73144C17.8382 5.24777 15.155 2.948 12.8258 3.6152C10.4963 4.28253 9.43099 7.67087 10.4406 11.1623Z" stroke="#c7273b" stroke-width="1.3"/>
<path d="M10.5796 35.3992L10.572 35.3963L10.5643 35.3936C9.75387 35.1056 9.19815 34.5699 8.88195 33.7995C8.55707 33.008 8.46977 31.9264 8.70908 30.557L8.70924 30.5561C9.1331 28.1093 10.6771 24.9206 12.8038 22.3423C14.9483 19.7424 17.5396 17.9352 19.9942 17.9352H19.9942C22.4494 17.935 25.0447 19.74 27.1924 22.3382C29.3225 24.915 30.869 28.1034 31.291 30.5554C31.5268 31.9258 31.4397 33.0082 31.1158 33.8004C30.8008 34.5709 30.2479 35.1059 29.4406 35.3935C28.0051 35.9027 27.0237 35.923 26.2746 35.7551C25.5097 35.5836 24.9195 35.2051 24.2412 34.7626L24.2393 34.7613L24.2062 34.7399C23.2105 34.0952 22.1339 33.398 20.2765 33.4653H19.7295C17.8466 33.3886 16.7702 34.0983 15.7605 34.7644L15.7605 34.7644L15.7564 34.7672C14.8884 35.3494 14.0882 35.8468 12.8579 35.8487C12.0782 35.8304 11.3073 35.6785 10.5796 35.3992Z" stroke="#616161" stroke-width="1.3"/>
</svg>
