<svg width="40" height="40" viewBox="0 0 40 40" fill="none" xmlns="http://www.w3.org/2000/svg">
<path d="M36.7402 8.71484C36.7402 8.4387 36.9641 8.21484 37.2402 8.21484H38.5009C38.7771 8.21484 39.0009 8.4387 39.0009 8.71484V11.2834C39.0009 11.5596 38.7771 11.7834 38.5009 11.7834H37.2402C36.9641 11.7834 36.7402 11.5596 36.7402 11.2834V8.71484Z" stroke="#c7273b"/>
<path d="M34.4824 7.31445C34.4824 7.03831 34.7063 6.81445 34.9824 6.81445H36.2431C36.5193 6.81445 36.7431 7.03831 36.7431 7.31445V12.6848C36.7431 12.9609 36.5193 13.1848 36.2431 13.1848H34.9824C34.7063 13.1848 34.4824 12.9609 34.4824 12.6848V7.31445Z" stroke="#c7273b"/>
<path d="M1 8.71484C1 8.4387 1.22386 8.21484 1.5 8.21484H2.76071C3.03685 8.21484 3.26071 8.4387 3.26071 8.71484V11.2834C3.26071 11.5596 3.03685 11.7834 2.76071 11.7834H1.5C1.22386 11.7834 1 11.5596 1 11.2834V8.71484Z" stroke="#c7273b"/>
<path d="M3.25977 7.31445C3.25977 7.03831 3.48362 6.81445 3.75977 6.81445H5.02047C5.29661 6.81445 5.52047 7.03831 5.52047 7.31445V12.6848C5.52047 12.9609 5.29661 13.1848 5.02047 13.1848H3.75977C3.48362 13.1848 3.25977 12.9609 3.25977 12.6848V7.31445Z" stroke="#c7273b"/>
<path d="M20.002 10.9728C22.1879 10.9728 23.9592 9.20091 23.9592 7.01572C23.9592 4.8299 22.1872 3.05859 20.002 3.05859C17.8162 3.05859 16.0449 4.83052 16.0449 7.01572C16.0449 9.20091 17.8169 10.9728 20.002 10.9728ZM20.002 3.96249C21.6858 3.96249 23.0553 5.33197 23.0553 7.01572C23.0553 8.69946 21.6858 10.0689 20.002 10.0689C18.3183 10.0689 16.9488 8.69946 16.9488 7.01572C16.9488 5.33197 18.3189 3.96249 20.002 3.96249Z" fill="#616161" stroke="#616161" stroke-width="0.3"/>
<path d="M30.6749 7.01593C30.5997 7.01593 30.5239 7.01925 30.4472 7.0268C29.2423 7.14182 28.3571 8.22269 28.3571 9.43335V12.2281L11.6433 12.2278V9.43304C11.6433 8.22239 10.7581 7.14181 9.5532 7.02649C9.47651 7.01925 9.40043 7.01562 9.32556 7.01562C8.04573 7.01562 7.00781 8.053 7.00781 9.33337V15.0002C7.00781 16.0285 7.84137 16.8621 8.86971 16.8621H15.1841V35.042C15.1841 36.0915 16.0349 36.9426 17.0847 36.9426H22.9149C23.9643 36.9426 24.8154 36.0918 24.8154 35.042V16.8629H31.0475C32.0879 16.8629 32.9263 16.0106 32.9094 14.9702L32.8934 13.9938L32.9915 9.33322C32.9927 8.05339 31.9548 7.01609 30.6749 7.01609L30.6749 7.01593ZM31.9903 14.0088L32.0063 14.9852C32.0105 15.2439 31.9127 15.4882 31.7316 15.6727C31.5501 15.8571 31.3074 15.9589 31.0487 15.9589H23.9121V35.0431C23.9121 35.5923 23.465 36.0394 22.9158 36.0394H20.4531V26.4308H19.5489V36.0394H17.0856C16.5364 36.0394 16.0893 35.5923 16.0893 35.0431V15.9589H8.87064C8.3426 15.9589 7.91264 15.5289 7.91264 15.0009L7.91294 13.5997V9.33403C7.91294 8.95664 8.05997 8.60159 8.32686 8.33468C8.59405 8.06749 8.9488 7.92076 9.32621 7.92076C9.37301 7.92076 9.4201 7.92287 9.4681 7.9277C10.1809 7.99563 10.7397 8.65742 10.7397 9.43391V13.1329H29.2621V9.43391C29.2621 8.65739 29.8203 7.99564 30.5337 7.9277C30.5814 7.92348 30.6285 7.92076 30.6756 7.92076C31.4551 7.92076 32.0888 8.55477 32.0891 9.31497L31.991 13.9756L31.9907 13.9925L31.9903 14.0088Z" fill="#616161" stroke="#616161" stroke-width="0.4"/>
</svg>
