<svg xmlns="http://www.w3.org/2000/svg" width="95.372" height="36.467" viewBox="0 0 95.372 36.467">
  <g id="Logo-Black-Copress__2_" data-name="Logo-Black-Copress_(2)" transform="translate(0.002)">
    <path id="Path_1525" data-name="Path 1525" d="M108.859,26.126a5.137,5.137,0,0,1-3.643,1.253,7.5,7.5,0,0,1-.858-.031V31.6H102V19.281q1.689-.081,3.445-.081a5.378,5.378,0,0,1,3.468.988,3.432,3.432,0,0,1,1.2,2.807A4.141,4.141,0,0,1,108.859,26.126Zm-3.593-4.941h-.9v4.132a4.658,4.658,0,0,0,1.006.1q2.282,0,2.282-2.174-.009-2.08-2.376-2.08Zm16.408,5.628q0,4.986-5.107,4.99-4.766,0-4.766-4.492V19.281h2.372V27.2a2.929,2.929,0,0,0,.517,1.9,2.5,2.5,0,0,0,2.039.741A2.581,2.581,0,0,0,118.7,29.2a3.274,3.274,0,0,0,.615-2.219v-7.7h2.354Zm2.551,4.784V19.281h2.367V31.6Zm14.791-4.784q0,4.986-5.107,4.99-4.77,0-4.766-4.492V19.281h2.367V27.2a2.956,2.956,0,0,0,.517,1.9,2.5,2.5,0,0,0,2.044.741,2.615,2.615,0,0,0,1.976-.642,3.275,3.275,0,0,0,.615-2.219v-7.7h2.354Zm9.554,4.784-2.65-4.528L143.274,31.6h-2.807l3.921-6.288-3.679-6.014h2.753l2.493,4.267,2.488-4.267h2.695l-3.625,6,4.042,6.32Zm-42.527,9.6h-.651l-.737-2.6a6.748,6.748,0,0,1-.144-.665h0a6.187,6.187,0,0,1-.139.665l-.719,2.6h-.629L102,37.333h.561l.656,2.52a6.966,6.966,0,0,1,.153.746h0a5.626,5.626,0,0,1,.153-.719l.723-2.547h.6l.75,2.565a6.828,6.828,0,0,1,.157.687h0l.13-.629.674-2.623h.517Z" transform="translate(-56.186 -10.576)" fill="#545455"/>
    <path id="Path_1526" data-name="Path 1526" d="M115.7,61.431h-1.864c0,.692.283,1.042.9,1.042a2.026,2.026,0,0,0,.813-.166l.072.4a2.574,2.574,0,0,1-.984.18c-.9,0-1.347-.49-1.347-1.46a1.626,1.626,0,0,1,.337-1.065,1.172,1.172,0,0,1,.948-.449,1.073,1.073,0,0,1,.858.346,1.213,1.213,0,0,1,.265.826A1.464,1.464,0,0,1,115.7,61.431Zm-.512-.368a.754.754,0,0,0-.162-.539.593.593,0,0,0-.476-.193c-.4,0-.633.243-.7.732Zm3.328,1.406a1.4,1.4,0,0,1-1.087.449,3.858,3.858,0,0,1-.979-.112V58.677h.517v1.379a2.471,2.471,0,0,1-.049.53h0a1.024,1.024,0,0,1,1.716-.292,1.59,1.59,0,0,1,.274,1A1.644,1.644,0,0,1,118.516,62.468Zm-.768-2.089a.674.674,0,0,0-.588.364,1.384,1.384,0,0,0-.193.732v.943a1.612,1.612,0,0,0,.508.072q.9,0,.9-1.145C118.377,60.7,118.166,60.38,117.748,60.38Zm1.918,3.4h-.49l2-5.26h.512Zm4.882-.925-.323-.9H122.59l-.319.9h-.539l1.406-3.863h.593l1.415,3.863Zm-.975-2.771-.166-.526-.157.517-.526,1.46H124.1Z" transform="translate(-62.404 -32.235)" fill="#545455"/>
    <path id="Path_1527" data-name="Path 1527" d="M142.565,64.226a1.406,1.406,0,0,1-1.078.413,2.957,2.957,0,0,1-.481-.036v1.419h-.517V61.76h.5a2.773,2.773,0,0,1-.045.575h0a.948.948,0,0,1,.957-.638.9.9,0,0,1,.768.346,1.558,1.558,0,0,1,.274,1A1.671,1.671,0,0,1,142.565,64.226Zm-.777-2.1a.665.665,0,0,0-.584.364,1.4,1.4,0,0,0-.2.737v.939a1.612,1.612,0,0,0,.508.072q.9,0,.9-1.145C142.417,62.452,142.206,62.129,141.788,62.129Z" transform="translate(-77.388 -33.984)" fill="#545455"/>
    <path id="Path_1528" data-name="Path 1528" d="M142.565,64.226a1.406,1.406,0,0,1-1.078.413,2.957,2.957,0,0,1-.481-.036v1.419h-.517V61.76h.5a2.773,2.773,0,0,1-.045.575h0a.948.948,0,0,1,.957-.638.9.9,0,0,1,.768.346,1.558,1.558,0,0,1,.274,1A1.671,1.671,0,0,1,142.565,64.226Zm-.777-2.1a.665.665,0,0,0-.584.364,1.4,1.4,0,0,0-.2.737v.939a1.612,1.612,0,0,0,.508.072q.9,0,.9-1.145C142.417,62.452,142.206,62.129,141.788,62.129Z" transform="translate(-74.231 -33.984)" fill="#545455"/>
    <path id="Path_1529" data-name="Path 1529" d="M70.791,30.413a1.348,1.348,0,0,1-.9.261,2.3,2.3,0,0,1-.633-.076l.045-.449a1.675,1.675,0,0,0,.633.117.777.777,0,0,0,.449-.117.364.364,0,0,0,.171-.319.35.35,0,0,0-.207-.323,4.737,4.737,0,0,0-.449-.166,1.15,1.15,0,0,1-.449-.229.66.66,0,0,1-.207-.526.741.741,0,0,1,.283-.606,1.307,1.307,0,0,1,.853-.247,2.65,2.65,0,0,1,.548.058l-.04.422a1.994,1.994,0,0,0-.557-.085c-.373,0-.557.135-.557.4a.368.368,0,0,0,.211.328,3.687,3.687,0,0,0,.449.166c.449.148.665.4.665.746a.786.786,0,0,1-.31.642Zm3.944-.072a1.577,1.577,0,0,1-1.042.332,3.144,3.144,0,0,1-.849-.108l.067-.508a2.1,2.1,0,0,0,.813.157,1,1,0,0,0,.584-.153.575.575,0,0,0,.252-.508.544.544,0,0,0-.274-.449,4.613,4.613,0,0,0-.6-.274,2.053,2.053,0,0,1-.6-.341.9.9,0,0,1-.274-.674.975.975,0,0,1,.35-.786,1.487,1.487,0,0,1,1-.31,3.014,3.014,0,0,1,.7.076l-.063.449a2.3,2.3,0,0,0-.665-.1c-.517,0-.777.2-.777.6a.53.53,0,0,0,.274.449,5.547,5.547,0,0,0,.611.278,2.111,2.111,0,0,1,.611.346.9.9,0,0,1,.274.669,1.064,1.064,0,0,1-.391.853Zm3.238-.108a1.289,1.289,0,0,1-1.011.449q-1.271,0-1.276-1.451a1.541,1.541,0,0,1,.373-1.065,1.294,1.294,0,0,1,1.015-.449,1.253,1.253,0,0,1,.9.328,1.5,1.5,0,0,1,.364,1.1A1.581,1.581,0,0,1,77.974,30.233Zm-.948-2.08a.723.723,0,0,0-.557.243,1.123,1.123,0,0,0-.252.777q0,1.065.808,1.065a.678.678,0,0,0,.552-.256,1.2,1.2,0,0,0,.238-.8C77.816,28.495,77.556,28.154,77.026,28.154Zm2.026,2.466V26.442h.517v4.177Zm3.252,0a3.034,3.034,0,0,1,.049-.6h0a1.006,1.006,0,0,1-1,.651c-.57,0-.853-.305-.853-.9v-2h.508v1.833c0,.449.162.642.485.642a.7.7,0,0,0,.584-.319,1.32,1.32,0,0,0,.225-.8V27.79h.517v2.843Zm2.875-.013a2.569,2.569,0,0,1-.575.058.755.755,0,0,1-.6-.193,1.029,1.029,0,0,1-.162-.66V28.176h-.588v-.4h.588v-.925l.512-.144v1.069h.8v.4h-.8v1.469a.926.926,0,0,0,.085.449.364.364,0,0,0,.323.126,1.285,1.285,0,0,0,.359-.049Zm1.186-3.494a.359.359,0,0,1-.485,0,.314.314,0,0,1-.1-.234.328.328,0,0,1,.1-.243.346.346,0,0,1,.485,0,.328.328,0,0,1,.1.243.319.319,0,0,1-.1.234Zm-.5,3.508V27.776h.512v2.843Zm3.517-.386a1.28,1.28,0,0,1-1.006.449q-1.28,0-1.28-1.451a1.563,1.563,0,0,1,.373-1.065,1.3,1.3,0,0,1,1.015-.449,1.253,1.253,0,0,1,.9.328,1.5,1.5,0,0,1,.364,1.1,1.581,1.581,0,0,1-.364,1.087Zm-.948-2.08a.728.728,0,0,0-.557.243,1.123,1.123,0,0,0-.252.777q0,1.065.808,1.065a.692.692,0,0,0,.557-.256,1.226,1.226,0,0,0,.238-.8q0-1.024-.8-1.024Zm3.8,2.466V28.791q0-.647-.485-.647a.692.692,0,0,0-.579.319,1.347,1.347,0,0,0-.229.8v1.347h-.517v-2.83h.5a3.082,3.082,0,0,1-.045.6h0a1,1,0,0,1,1-.651c.57,0,.858.305.858.9v1.985Zm2.794-.207a1.379,1.379,0,0,1-.9.261A2.326,2.326,0,0,1,93.5,30.6l.049-.449a1.635,1.635,0,0,0,.629.117.8.8,0,0,0,.449-.117.373.373,0,0,0,.171-.319.359.359,0,0,0-.207-.323c-.054-.027-.2-.081-.449-.166a1.141,1.141,0,0,1-.449-.229.674.674,0,0,1-.207-.526.741.741,0,0,1,.283-.606,1.316,1.316,0,0,1,.853-.247,2.619,2.619,0,0,1,.548.058l-.04.422a1.972,1.972,0,0,0-.557-.085c-.368,0-.557.135-.557.4a.368.368,0,0,0,.211.328,4.27,4.27,0,0,0,.449.166c.449.148.665.4.665.746a.786.786,0,0,1-.31.642ZM11.165,0V34.747A19.1,19.1,0,0,1,11.165,0ZM22.3,18.788a15.757,15.757,0,0,1-3.319-.323V4.824l3.027-.058q7.815,0,7.82,6.85Q29.832,18.788,22.3,18.788Z" fill="#545455"/>
    <path id="Path_1530" data-name="Path 1530" d="M61.463,33.75A19.094,19.094,0,0,1,42.378,52.844H42.27V41.53q1.321.117,2.821.117,7.636,0,12.024-4.146a13.075,13.075,0,0,0,3.939-7.771A19.232,19.232,0,0,1,61.463,33.75Z" transform="translate(-23.285 -16.376)" fill="#545455"/>
  </g>
</svg>
