<svg width="27" height="35" viewBox="0 0 27 35" fill="none" xmlns="http://www.w3.org/2000/svg">
<path d="M22.5933 22.0898C22.591 22.0875 22.5897 22.0844 22.5897 22.0812V22.0254L22.6512 7.22952C22.6528 6.84579 22.315 6.5491 21.9346 6.60018C19.9622 6.86509 18.8954 7.98197 18.3477 8.86975C17.7714 9.80765 17.6425 10.6632 17.6318 10.7563V10.7921L17.5701 13.5654C17.5614 13.9571 17.4043 14.3308 17.1306 14.6111C16.5337 15.2222 15.5543 15.2332 14.9438 14.6357L4.62293 4.53466C4.21842 4.13731 3.68146 3.91895 3.11585 3.91895C2.55025 3.91895 1.98107 4.14805 1.57298 4.56688L1.43337 4.70649C0.602863 5.55847 0.617182 6.92594 1.46558 7.75645L6.01224 12.2095C6.08419 12.2799 6.06579 12.4002 5.97608 12.4459C5.76845 12.5533 5.57873 12.6894 5.41764 12.8576L5.27803 13.0008C4.79476 13.4948 4.57639 14.1964 4.69811 14.8802C4.71166 14.9615 4.65469 15.0387 4.57281 15.0484C4.08239 15.1093 3.6385 15.3276 3.29484 15.6785L3.15523 15.8216C2.81873 16.1689 2.61111 16.6056 2.55741 17.0889C2.54942 17.1648 2.48331 17.2218 2.40706 17.2177C2.37126 17.2177 2.33547 17.2177 2.29609 17.2177C1.70901 17.2177 1.1613 17.4469 0.753212 17.8657L0.613602 18.0089C-0.216902 18.8573 -0.202583 20.2283 0.64582 21.0588L5.13842 25.4619C5.36394 25.6839 5.62884 25.8485 5.92238 25.9524L5.92418 25.953C5.95974 25.9664 5.98866 25.9931 6.00472 26.0275C6.03694 26.0955 6.07989 26.1564 6.13359 26.2101C9.18354 29.1956 11.8003 29.8221 13.4578 29.8221C13.7835 29.8221 14.0986 29.797 14.3885 29.7469C14.4356 29.7379 14.4841 29.7526 14.5184 29.7861L17.777 32.9709C18.5668 33.7428 19.8327 33.7285 20.6048 32.939L25.6017 27.8296C26.374 27.04 26.3599 25.7738 25.5702 25.0014L22.5933 22.0898ZM6.18189 13.8886C6.18309 13.8862 6.18468 13.884 6.18658 13.8821L6.32332 13.7454C6.49157 13.5736 6.72067 13.4769 6.96051 13.4769C7.13234 13.4769 7.30059 13.527 7.44378 13.6201L7.44451 13.6205C7.45351 13.625 7.46173 13.6309 7.46884 13.638L11.786 17.8657C11.8075 17.8872 11.8361 17.9086 11.8684 17.9337L11.8863 17.948L12.2836 18.3382C12.6344 18.6819 12.6416 19.2475 12.2979 19.6019L12.1583 19.7451C11.9901 19.9169 11.7681 20.01 11.5283 20.0135H11.5175C11.2813 20.0135 11.0629 19.924 10.8947 19.7594L6.19445 15.1558C5.84457 14.8131 5.83651 14.246 6.17736 13.895C6.17918 13.8931 6.18072 13.891 6.18189 13.8886ZM4.05733 16.7058L4.19694 16.5627C4.36519 16.3908 4.59071 16.2942 4.83414 16.2942C5.07756 16.2942 5.29235 16.3837 5.46059 16.5483L9.95319 20.9479C10.304 21.2915 10.3112 21.8607 9.96751 22.2115L9.8279 22.3547C9.65965 22.5265 9.43771 22.6196 9.19786 22.6232H9.18712C8.95086 22.6232 8.73249 22.5337 8.56424 22.369L4.07165 17.9695C3.72083 17.6258 3.71367 17.0567 4.05733 16.7058ZM7.28269 24.5384C7.11444 24.7102 6.8925 24.8033 6.65266 24.8068H6.64192C6.40565 24.8068 6.18371 24.7173 6.01904 24.5527L1.52644 20.1531C1.17562 19.8095 1.16847 19.2403 1.51212 18.8895L1.65173 18.7463C1.81998 18.5745 2.04908 18.4778 2.28893 18.4778C2.52877 18.4778 2.74714 18.5673 2.91539 18.732L7.40798 23.1315C7.7588 23.4752 7.76596 24.0443 7.4223 24.3952L7.28269 24.5384ZM19.1818 32.5719C19.1818 32.573 19.1804 32.5736 19.1796 32.5728L15.0937 28.5763C14.9265 28.4026 14.6718 28.3451 14.4462 28.4303L14.4386 28.4331C14.3993 28.4439 14.0413 28.5477 13.4542 28.5477C13.0926 28.5477 12.7168 28.5083 12.3373 28.4331C11.3099 28.2327 9.67755 27.642 7.76238 25.981C7.68814 25.9174 7.69706 25.7997 7.78028 25.7483C7.92705 25.6552 8.06666 25.5478 8.18837 25.4226L8.32798 25.2794C8.66448 24.9321 8.8721 24.4954 8.9258 24.0121C8.93379 23.9362 8.9999 23.8792 9.07615 23.8833C9.11553 23.8833 9.1549 23.8833 9.1907 23.8833H9.2086C9.78494 23.8761 10.3219 23.647 10.7264 23.2353L10.866 23.0921C11.2992 22.6482 11.5211 22.0397 11.471 21.4168C11.4651 21.3345 11.5282 21.2632 11.6106 21.2593C12.1619 21.2378 12.6738 21.0087 13.0604 20.6149L13.2 20.4717C14.0305 19.6233 14.0162 18.2523 13.1678 17.4218L8.46759 12.8146C8.41032 12.7609 8.34946 12.7073 8.28144 12.6536L8.2707 12.6428L2.3462 6.84719C1.99539 6.50353 1.98823 5.94151 2.32831 5.59069L2.34263 5.57637L2.4715 5.44392C2.63975 5.27209 2.86885 5.17544 3.10869 5.17544C3.34854 5.17544 3.5669 5.26493 3.73515 5.4296L15.1245 16.5773C15.1736 16.6253 15.1831 16.7008 15.1474 16.7595C14.5532 17.7368 14.4852 18.911 14.9541 20.2462C15.3622 21.4096 16.0424 22.2759 16.071 22.3117C16.1927 22.4657 16.3717 22.5516 16.565 22.5516C16.7082 22.5516 16.8442 22.505 16.9552 22.4156C17.2273 22.2008 17.2738 21.7998 17.059 21.5278C17.0375 21.4991 14.8682 18.7177 16.565 16.9815L18.2489 15.2598C18.6045 14.8963 18.8082 14.4111 18.8187 13.9027L18.8811 10.8887C18.8811 10.8816 18.8816 10.8753 18.8829 10.8683C18.9529 10.4991 19.363 8.75969 21.1793 8.07146C21.2741 8.03526 21.3758 8.10553 21.3754 8.20704L21.3222 21.7591C21.3201 22.3 21.5372 22.8187 21.9239 23.1969L23.777 25.0091C24.5666 25.7812 24.5809 27.0471 23.809 27.8369L19.1822 32.571C19.1819 32.5712 19.1818 32.5715 19.1818 32.5719Z" fill="#A0051C"/>
<path d="M10.5348 4.38452C10.534 4.38452 10.5336 4.38537 10.534 4.38598C10.6686 4.57575 10.5897 4.86822 10.354 5.03604C10.1177 5.20428 9.81705 5.18639 9.68102 4.99666L7.72647 2.27962C7.59044 2.08989 7.6692 1.79635 7.90546 1.62811C8.14172 1.45986 8.44242 1.47776 8.58203 1.66748L10.5355 4.38307C10.536 4.38367 10.5355 4.38452 10.5348 4.38452Z" fill="#A0051C"/>
<path d="M13.9804 4.10146C13.9482 4.33415 13.6868 4.48808 13.4005 4.44512C13.1141 4.40574 12.9065 4.18022 12.9422 3.94753L13.4219 0.632677C13.4542 0.399992 13.7155 0.246062 14.0019 0.28544C14.2882 0.328397 14.4959 0.550342 14.4601 0.783026L13.9809 4.09434C13.9806 4.0967 13.9804 4.09908 13.9804 4.10146Z" fill="#A0051C"/>
<path d="M17.4385 5.62274C17.306 5.81605 17.0017 5.83752 16.7655 5.67285C16.5256 5.50819 16.4433 5.21822 16.5757 5.02492L18.4802 2.27208C18.6126 2.07878 18.9169 2.05372 19.1532 2.21839C19.393 2.38306 19.4753 2.6766 19.3429 2.8699L17.4385 5.62274Z" fill="#A0051C"/>
</svg>
