<svg width="40" height="40" viewBox="0 0 40 40" fill="none" xmlns="http://www.w3.org/2000/svg">
<path d="M21.7487 20.5714C21.7487 21.5409 20.9628 22.3268 19.9933 22.3268C19.0238 22.3268 18.2379 21.5409 18.2379 20.5714C18.2379 19.6019 19.0238 18.816 19.9933 18.816C20.9628 18.816 21.7487 19.6019 21.7487 20.5714Z" stroke="#616161" stroke-width="1.3"/>
<path d="M19.9496 1.50977C15.7431 4.3034 8.27753 6.93235 4.63053 6.97578C4.57815 6.9764 4.53705 7.01368 4.53344 7.06595C4.04783 14.1067 6.52491 30.3598 19.9471 38.4911M20.0504 1.50977C24.2569 4.3034 31.7225 6.93235 35.3695 6.97578C35.4219 6.9764 35.4629 7.01368 35.4666 7.06595C35.9522 14.1067 33.4751 30.3598 20.0529 38.4911" stroke="#616161" stroke-width="1.3" stroke-linecap="round"/>
<path d="M24.3193 14.4232V12.6162C24.3193 10.2307 22.3855 8.29688 20 8.29688V8.29688C17.6145 8.29688 15.6807 10.2307 15.6807 12.6162V14.4232" stroke="#c7273b" stroke-width="1.3"/>
<rect x="13.1178" y="14.9547" width="13.7645" height="11.2547" rx="2.35" stroke="#c7273b" stroke-width="1.3"/>
</svg>
