<svg width="40" height="40" viewBox="0 0 40 40" fill="none" xmlns="http://www.w3.org/2000/svg">
<path d="M28.7465 38.9997H11.2641C11.0455 38.9997 10.8682 38.8223 10.8682 38.604V10.6848C10.8682 10.4661 11.0455 10.2891 11.2641 10.2891H28.7465C28.8515 10.2891 28.9522 10.3307 29.0264 10.4049C29.1006 10.4791 29.1425 10.5798 29.1425 10.6848V38.604C29.1425 38.7089 29.1006 38.8096 29.0264 38.8838C28.9522 38.9581 28.8515 38.9997 28.7465 38.9997ZM11.6604 38.208H28.351V11.0799H11.6604V38.208Z" fill="#c7273b" stroke="#c7273b" stroke-width="0.5"/>
<path d="M20.0061 38.9997C19.7877 38.9997 19.6104 38.8223 19.6104 38.604V10.6848C19.6104 10.4661 19.7877 10.2891 20.0061 10.2891C20.2247 10.2891 20.402 10.4661 20.402 10.6848V38.604C20.402 38.7089 20.3601 38.8096 20.2859 38.8838C20.2117 38.9581 20.1113 38.9997 20.0061 38.9997Z" fill="#c7273b" stroke="#c7273b" stroke-width="0.5"/>
<path d="M33.396 26.1282C33.3038 26.1289 33.2194 26.0773 33.178 25.9951L32.4274 24.4937C32.3893 24.4184 32.3933 24.3287 32.4377 24.2571C32.4823 24.1854 32.5608 24.1419 32.6453 24.1426H34.1443C34.2288 24.1419 34.3071 24.1854 34.3517 24.2571C34.3961 24.3287 34.4 24.4184 34.3621 24.4937L33.6017 25.9951C33.5623 26.0736 33.4837 26.1245 33.396 26.1282Z" stroke="#c7273b" stroke-width="0.8"/>
<path d="M32.6453 21.9857H34.1441C34.2286 21.9863 34.3071 21.943 34.3517 21.8713C34.3962 21.7997 34.4001 21.71 34.3621 21.6346L33.6115 20.1331C33.5704 20.0517 33.4871 20.0003 33.396 20C33.3038 19.9994 33.2194 20.0509 33.178 20.1331L32.4274 21.6346C32.3893 21.71 32.3933 21.7997 32.4377 21.8713C32.4823 21.943 32.5608 21.9863 32.6453 21.9857Z" stroke="#c7273b" stroke-width="0.8"/>
<path d="M15.7306 7.78684H24.3314C24.7077 7.78684 25.0152 7.55462 25.0239 7.2638V5.58788C25.0239 5.29235 24.7138 5.05273 24.3314 5.05273H15.7306C15.3482 5.05273 15.0381 5.29235 15.0381 5.58788V7.25169C15.0381 7.54722 15.3482 7.78684 15.7306 7.78684Z" stroke="#616161" stroke-width="1.3"/>
<path d="M36.8988 38.9962H3.10172C2.72271 38.9962 2.35936 38.8457 2.09135 38.5777C1.8234 38.3098 1.67285 37.9464 1.67285 37.5674V2.42887C1.67285 2.04986 1.8234 1.68651 2.09135 1.4185C2.35931 1.15055 2.72268 1 3.10172 1H36.8988C37.2778 1 37.6412 1.15055 37.9092 1.4185C38.1772 1.68646 38.3277 2.04983 38.3277 2.42887V37.5674C38.3277 37.9464 38.1771 38.3097 37.9092 38.5777C37.6412 38.8457 37.2778 38.9962 36.8988 38.9962ZM3.10172 1.79168C2.74974 1.79168 2.46456 2.07686 2.46456 2.42884V37.5673C2.46456 37.9193 2.74974 38.2045 3.10172 38.2045H36.8988C37.0679 38.2045 37.2298 38.1374 37.3494 38.0179C37.4689 37.8984 37.536 37.7364 37.536 37.5673V2.42884C37.536 2.07686 37.2508 1.79168 36.8988 1.79168H3.10172Z" fill="#616161" stroke="#616161" stroke-width="0.6"/>
</svg>
