<svg width="40" height="40" viewBox="0 0 40 40" fill="none" xmlns="http://www.w3.org/2000/svg">
<path d="M38.3202 24.6402H35.7202C34.8802 24.6402 34.0802 24.8002 33.3202 25.0402C33.2403 23.1202 32.4803 21.3602 31.1203 20.0002L29.6003 18.4803C29.7203 18.0403 29.8003 17.5603 29.8003 17.1203C29.8003 14.4803 27.9203 12.2404 25.4004 11.7204C26.1604 10.9604 26.6403 9.88039 26.6403 8.72041C26.6403 6.36044 24.7604 4.48047 22.4404 4.48047H12.2406C9.92058 4.48047 8.04061 6.36044 8.04061 8.72041C8.04061 9.92039 8.52061 10.9204 9.2806 11.7204C6.80063 12.2404 4.88066 14.4403 4.88066 17.1203C4.88066 18.8403 5.68065 20.3602 6.92063 21.4002C3.55996 21.9602 1 24.8802 1 28.4001C1 32.3201 4.19995 35.52 8.0799 35.52H31.4396C35.5995 35.52 38.9994 32.1201 38.9994 27.9201V25.3202C38.9994 24.9595 38.6802 24.6402 38.3202 24.6402ZM12.2406 5.84045H22.4804C24.0804 5.84045 25.3604 7.16043 25.3604 8.72041C25.3604 10.2804 24.0804 11.6004 22.4804 11.6004H12.2406C10.6406 11.6004 9.36059 10.2804 9.36059 8.72041C9.40059 7.12043 10.6806 5.84045 12.2406 5.84045ZM6.24064 17.1203C6.24064 14.8003 8.08061 12.9603 10.4006 12.9603H24.4004C26.6803 12.9603 28.5603 14.8403 28.5603 17.1203C28.5603 17.4403 28.5203 17.8003 28.4403 18.1203C28.4403 18.1203 28.4003 18.1203 28.4003 18.1603L26.5203 20.0402C26.2004 20.3602 25.8804 20.7202 25.6404 21.1202C25.2404 21.2402 24.8004 21.3202 24.4004 21.3202H10.4006C8.12061 21.2802 6.24064 19.4003 6.24064 17.1203ZM8.08061 34.16C4.92066 34.16 2.3207 31.5601 2.3207 28.4001C2.3207 25.2402 4.92066 22.6402 8.08061 22.6402H24.8004C24.4804 23.4002 24.3604 24.2402 24.3204 25.0802C23.5604 24.8402 22.7604 24.6802 21.9204 24.6802H19.3204C18.9605 24.6802 18.6405 25.0002 18.6405 25.3602V27.9601C18.6405 30.5601 19.9604 32.8401 21.9604 34.24H8.08061V34.16ZM28.1603 34.16H26.2404C22.8004 34.16 19.9604 31.3201 19.9604 27.8801V26.0002H21.8804C25.3204 26.0002 28.1603 28.8401 28.1603 32.2801V34.16ZM25.6404 25.6402V25.3202C25.6404 23.6802 26.2803 22.0802 27.4403 20.9602L28.8403 19.5603L30.2403 20.9602C31.4003 22.1202 32.0403 23.6802 32.0403 25.3202V25.6402C30.6403 26.4402 29.5203 27.6801 28.8403 29.1601C28.1603 27.6401 27.0403 26.4402 25.6404 25.6402ZM37.6802 27.8801C37.6802 31.3601 34.8802 34.16 31.4003 34.16H29.4803V32.2401C29.4803 28.7601 32.2803 25.9602 35.7602 25.9602H37.6802V27.8801Z" fill="#616161"/>
<path d="M18.6252 25.2672C18.6309 25.2544 18.6388 25.2429 18.6416 25.2293C18.7217 24.8961 18.9913 24.6787 19.3331 24.6759C19.5848 24.6737 19.8358 24.6751 20.0875 24.6759C20.759 24.6773 21.4304 24.673 22.1019 24.6823C22.812 24.6916 23.502 24.8325 24.1799 25.0363C24.2178 25.0477 24.2557 25.0577 24.3072 25.0727C24.3165 24.9426 24.3251 24.8189 24.3351 24.6952C24.3823 24.0959 24.4624 23.4996 24.6812 22.9375C24.8685 22.4577 25.0602 21.9772 25.3512 21.5453C25.605 21.1691 25.8253 20.7701 26.1356 20.434C26.2715 20.2867 26.4066 20.1394 26.5475 19.9978C27.1711 19.3729 27.7982 18.7515 28.4217 18.1265C28.5483 17.9999 28.6656 17.864 28.795 17.7246C28.9244 17.8419 29.046 17.9441 29.159 18.0557C29.8469 18.7372 30.5426 19.4115 31.2177 20.1058C32.2531 21.172 32.9095 22.4434 33.1813 23.9057C33.2435 24.2389 33.2664 24.5793 33.3064 24.9161C33.3107 24.9519 33.3136 24.9883 33.3171 25.0277C33.5481 24.9662 33.7698 24.9033 33.9929 24.8482C34.5664 24.708 35.1492 24.6351 35.7398 24.6344C36.5829 24.6344 37.426 24.6344 38.2683 24.6344C38.6952 24.6344 38.9941 24.9354 38.9941 25.3638C38.9941 26.2526 39.0106 27.1414 38.9905 28.0296C38.9412 30.2327 38.0981 32.0869 36.4742 33.575C35.4581 34.506 34.2632 35.1031 32.9103 35.3712C32.5777 35.437 32.2374 35.4613 31.9013 35.505C31.8705 35.5093 31.8405 35.515 31.8098 35.5207H24.8478C24.8206 35.515 24.7934 35.5071 24.7655 35.5035C24.6526 35.4892 24.5317 35.4957 24.4266 35.4585C23.9968 35.3062 23.5549 35.1753 23.1495 34.9722C22.6954 34.7441 22.2563 34.4824 21.8452 34.1735C21.143 33.645 20.523 33.0415 20.0174 32.3229C19.2652 31.2538 18.8104 30.0711 18.671 28.7697C18.6524 28.5973 18.6388 28.4243 18.623 28.2512C18.623 27.2566 18.623 26.2626 18.623 25.2679L18.6252 25.2672ZM29.48 34.1563C29.5122 34.1578 29.5372 34.1606 29.563 34.1606C30.1658 34.1606 30.7686 34.162 31.3714 34.1606C31.887 34.1592 32.3961 34.0991 32.8988 33.9797C35.6468 33.3268 37.6584 30.8026 37.6748 27.9781C37.6784 27.3324 37.6755 26.6866 37.6755 26.0409C37.6755 26.0159 37.6734 25.9909 37.6712 25.9608C37.6426 25.9594 37.6176 25.9566 37.5926 25.9566C36.9755 25.9566 36.3583 25.9487 35.7412 25.9594C35.4338 25.9644 35.1234 25.983 34.8195 26.0288C33.5231 26.2233 32.3882 26.7653 31.4393 27.6713C30.1908 28.8633 29.5358 30.3314 29.4808 32.0562C29.4593 32.7355 29.4757 33.4162 29.475 34.0955C29.475 34.1127 29.4772 34.1292 29.4793 34.1563H29.48ZM19.9524 26.0038C19.9509 26.0359 19.9481 26.061 19.9481 26.086C19.9481 26.6917 19.9459 27.2973 19.9481 27.903C19.9495 28.3092 19.9888 28.7132 20.0732 29.1108C20.3886 30.5974 21.1401 31.8209 22.3214 32.7727C23.3833 33.6279 24.6004 34.0984 25.9662 34.1477C26.6712 34.1728 27.3777 34.1578 28.0835 34.1606C28.1028 34.1606 28.1221 34.157 28.1471 34.1542C28.1486 34.1227 28.1514 34.0948 28.1514 34.0669C28.1521 33.487 28.1536 32.9071 28.1529 32.3272C28.1521 31.901 28.1178 31.4769 28.0299 31.0586C27.7031 29.5091 26.9086 28.2491 25.6544 27.2866C24.5925 26.4714 23.3854 26.0374 22.0447 26.0045C21.3675 25.988 20.6903 25.9995 20.0132 25.998C19.996 25.998 19.9795 26.0009 19.9524 26.003V26.0038ZM28.8329 29.1451C28.8422 29.1315 28.8458 29.1272 28.8479 29.1215C29.5458 27.6513 30.5834 26.49 31.9885 25.6605C32.0114 25.6469 32.0329 25.6076 32.0321 25.5811C32.0228 25.2644 32.0286 24.9454 31.9935 24.6315C31.8448 23.3065 31.3292 22.1388 30.4211 21.1598C29.9162 20.6157 29.3771 20.1037 28.8536 19.5767C28.8479 19.5709 28.84 19.5674 28.815 19.5509C28.7986 19.5745 28.7843 19.6031 28.7621 19.6253C28.298 20.0908 27.8332 20.5549 27.3684 21.0197C26.8049 21.5824 26.3816 22.2375 26.0841 22.974C25.7523 23.7956 25.6129 24.6515 25.6308 25.5354C25.6322 25.6105 25.6537 25.6505 25.7187 25.6891C26.953 26.4171 27.9162 27.4082 28.5948 28.6724C28.677 28.8254 28.7514 28.982 28.8329 29.1437V29.1451Z" fill="#c7273b"/>
</svg>
