<svg width="40" height="40" viewBox="0 0 40 40" fill="none" xmlns="http://www.w3.org/2000/svg">
<path d="M17.0079 26.017C16.5703 26.017 16.2162 25.6627 16.2162 25.2253V6.90422C16.2162 5.66777 15.2103 4.66155 13.9735 4.66155H11.529C11.0914 4.66155 10.7373 4.3072 10.7373 3.86984C10.7373 3.43247 11.0914 3.07812 11.529 3.07812H13.9735C16.0832 3.07812 17.7996 4.79446 17.7996 6.90414V25.2253C17.7996 25.6623 17.4456 26.017 17.0079 26.017Z" fill="#c7273b"/>
<path d="M28.4728 24.0675C28.0352 24.0675 27.6811 23.7132 27.6811 23.2758V6.90422C27.6811 5.66777 26.6751 4.66155 25.4384 4.66155H22.9939C22.5562 4.66155 22.2021 4.3072 22.2021 3.86984C22.2021 3.43247 22.5562 3.07812 22.9939 3.07812H25.4384C27.5481 3.07812 29.2644 4.79446 29.2644 6.90414V23.2757C29.2644 23.7128 28.9104 24.0675 28.4728 24.0675Z" fill="#c7273b"/>
<path d="M28.4706 11.7338H17.0066C16.5689 11.7338 16.2148 11.3795 16.2148 10.9421C16.2148 10.5047 16.5689 10.1504 17.0066 10.1504H28.4706C28.9082 10.1504 29.2623 10.5047 29.2623 10.9421C29.2623 11.3795 28.9082 11.7338 28.4706 11.7338Z" fill="#c7273b"/>
<path d="M28.4559 19.1225H16.9919C16.5543 19.1225 16.2002 18.7681 16.2002 18.3308C16.2002 17.8934 16.5543 17.5391 16.9919 17.5391H28.4559C28.8935 17.5391 29.2476 17.8934 29.2476 18.3308C29.2476 18.7678 28.8936 19.1225 28.4559 19.1225Z" fill="#c7273b"/>
<path d="M19.9999 26.8076C18.5943 26.8076 17.1896 26.3656 15.9086 25.4821C13.9109 24.1038 11.5236 24.1029 9.52436 25.4821C6.96471 27.2483 3.90394 27.2498 1.3426 25.4821C0.982227 25.234 0.891772 24.7407 1.14016 24.3809C1.38826 24.0211 1.88159 23.9295 2.24113 24.1788C4.24114 25.5583 6.62767 25.5577 8.62621 24.1788C11.1876 22.4119 14.2466 22.4125 16.808 24.1788C18.8071 25.558 21.1936 25.558 23.1914 24.1788C25.7528 22.4122 28.8127 22.4113 31.3738 24.1788C33.3725 25.5577 35.7589 25.5583 37.7589 24.1788C38.1176 23.9295 38.6109 24.0211 38.8599 24.3809C39.108 24.7407 39.0175 25.234 38.6575 25.4821C36.0969 27.2483 33.0362 27.2498 30.4757 25.4821C28.4757 24.1029 26.0892 24.1044 24.0906 25.4821C22.8105 26.3657 21.4049 26.8076 20.0001 26.8076H19.9999Z" fill="#616161"/>
<path d="M19.9999 31.8625C18.5943 31.8628 17.1896 31.4212 15.9094 30.5373C13.9102 29.1581 11.5228 29.1581 9.52509 30.5373C6.96368 32.3031 3.90379 32.3039 1.3426 30.5373C0.982227 30.2892 0.891772 29.7959 1.14016 29.4361C1.38826 29.0758 1.88159 28.985 2.24113 29.234C4.23974 30.612 6.6262 30.6129 8.62621 29.234C11.1876 27.4663 14.2466 27.4672 16.808 29.234C18.8071 30.6132 21.193 30.6132 23.1922 29.234C25.7519 27.4666 28.8127 27.466 31.374 29.234C33.374 30.6129 35.7605 30.612 37.7591 29.234C38.1177 28.985 38.6111 29.0758 38.86 29.4361C39.1081 29.7959 39.0177 30.2892 38.6576 30.5373C36.0962 32.3042 33.0357 32.3036 30.4758 30.5373C28.4772 29.1584 26.0908 29.1578 24.0908 30.5373C22.8101 31.4206 21.4046 31.8625 19.9999 31.8625Z" fill="#616161"/>
<path d="M19.9999 36.9209C18.5943 36.9209 17.1896 36.4789 15.9086 35.5954C13.9109 34.2171 11.5236 34.2162 9.52436 35.5954C6.96471 37.3619 3.90394 37.3628 1.3426 35.5954C0.982227 35.3473 0.891772 34.8539 1.14016 34.4942C1.38826 34.1344 1.88159 34.0428 2.24113 34.292C4.24114 35.6715 6.62767 35.6709 8.62621 34.292C11.1876 32.5246 14.2466 32.5263 16.808 34.292C18.8071 35.6712 21.1936 35.6712 23.1914 34.292C25.7528 32.5258 28.8127 32.5243 31.3738 34.292C33.3725 35.6709 35.7589 35.6715 37.7589 34.292C38.1176 34.0428 38.6109 34.1344 38.8599 34.4942C39.108 34.854 39.0175 35.3473 38.6575 35.5954C36.0969 37.3619 33.0362 37.3628 30.4757 35.5954C28.4757 34.2165 26.0892 34.2173 24.0906 35.5954C22.8105 36.479 21.4049 36.9209 20.0001 36.9209H19.9999Z" fill="#616161"/>
</svg>
