<svg width="40" height="40" viewBox="0 0 40 40" fill="none" xmlns="http://www.w3.org/2000/svg">
<path d="M29.1896 23.2814H10.8096V22.6114C10.8881 20.2331 11.8882 17.9784 13.5983 16.3238C15.3085 14.6692 17.595 13.7441 19.9746 13.7441C22.3542 13.7441 24.6406 14.6692 26.3508 16.3238C28.061 17.9784 29.061 20.2331 29.1396 22.6114L29.1896 23.2814ZM12.1896 21.9814H27.8096C27.5822 20.0684 26.6611 18.3053 25.2208 17.026C23.7805 15.7467 21.921 15.0402 19.9946 15.0402C18.0682 15.0402 16.2086 15.7467 14.7683 17.026C13.328 18.3053 12.4069 20.0684 12.1796 21.9814H12.1896Z" fill="#c7273b"/>
<path d="M19.9999 38.3709C16.3666 38.3709 12.815 37.2935 9.79407 35.275C6.77313 33.2564 4.41861 30.3874 3.02822 27.0308C1.63784 23.6741 1.27405 19.9805 1.98287 16.4171C2.69168 12.8536 4.44125 9.58041 7.01034 7.01132C9.57943 4.44223 12.8527 2.69265 16.4161 1.98384C19.9795 1.27503 23.6731 1.63882 27.0298 3.0292C30.3865 4.41958 33.2555 6.77411 35.274 9.79504C37.2925 12.816 38.3699 16.3676 38.3699 20.0009C38.3646 24.8713 36.4275 29.5407 32.9836 32.9846C29.5397 36.4285 24.8703 38.3656 19.9999 38.3709ZM19.9999 2.93087C16.6238 2.93087 13.3235 3.93201 10.5163 5.80768C7.70916 7.68336 5.52126 10.3493 4.22927 13.4685C2.93728 16.5876 2.59924 20.0198 3.25789 23.3311C3.91654 26.6423 5.5423 29.6839 7.92958 32.0712C10.3169 34.4585 13.3584 36.0842 16.6697 36.7429C19.981 37.4015 23.4132 37.0635 26.5323 35.7715C29.6514 34.4795 32.3174 32.2916 34.1931 29.4845C36.0688 26.6773 37.0699 23.377 37.0699 20.0009C37.0672 15.4744 35.2679 11.1342 32.0673 7.93348C28.8666 4.73281 24.5263 2.93352 19.9999 2.93087Z" fill="#616161"/>
<path d="M37.7193 21.9805H2.2793V23.2805H37.7193V21.9805Z" fill="#616161"/>
<path d="M29.8297 28.23C29.3848 28.2309 28.9442 28.1429 28.5338 27.9711C28.1234 27.7994 27.7514 27.5474 27.4397 27.23C27.2439 27.013 27.0048 26.8394 26.7379 26.7206C26.4709 26.6017 26.1819 26.5402 25.8897 26.54C25.5989 26.5404 25.3115 26.602 25.0462 26.7209C24.7808 26.8398 24.5435 27.0132 24.3497 27.23C24.0393 27.5499 23.6678 27.8043 23.2572 27.978C22.8467 28.1517 22.4055 28.2412 21.9597 28.2412C21.5139 28.2412 21.0727 28.1517 20.6621 27.978C20.2516 27.8043 19.8801 27.5499 19.5697 27.23C19.3739 27.013 19.1348 26.8394 18.8679 26.7206C18.6009 26.6017 18.3119 26.5402 18.0197 26.54C17.7289 26.5404 17.4415 26.602 17.1762 26.7209C16.9108 26.8398 16.6735 27.0132 16.4797 27.23C16.1684 27.5502 15.7961 27.8047 15.3847 27.9786C14.9733 28.1524 14.5313 28.242 14.0847 28.242C13.6381 28.242 13.196 28.1524 12.7847 27.9786C12.3733 27.8047 12.001 27.5502 11.6897 27.23C11.4939 27.013 11.2548 26.8394 10.9879 26.7206C10.7209 26.6017 10.4319 26.5402 10.1397 26.54C9.85634 26.544 9.57687 26.6065 9.31878 26.7235C9.06068 26.8405 8.8295 27.0095 8.63969 27.22C8.32684 27.5393 7.95343 27.7929 7.54133 27.9661C7.12922 28.1393 6.6867 28.2284 6.23969 28.2284C5.79268 28.2284 5.35016 28.1393 4.93805 27.9661C4.52594 27.7929 4.15253 27.5393 3.83969 27.22C3.62507 27.0068 3.37884 26.828 3.10969 26.69L2.92969 26.56L3.39969 26.08L3.63969 25.51C4.0033 25.7048 4.33954 25.9469 4.63969 26.23C4.83478 26.448 5.07368 26.6224 5.34076 26.7418C5.60785 26.8612 5.89712 26.9229 6.18969 26.9229C6.48225 26.9229 6.77152 26.8612 7.03861 26.7418C7.3057 26.6224 7.54459 26.448 7.73969 26.23C8.0501 25.91 8.42159 25.6557 8.83213 25.482C9.24267 25.3083 9.68391 25.2188 10.1297 25.2188C10.5755 25.2188 11.0167 25.3083 11.4272 25.482C11.8378 25.6557 12.2093 25.91 12.5197 26.23C12.7135 26.4467 12.9508 26.6201 13.2162 26.739C13.4815 26.8579 13.7689 26.9196 14.0597 26.92C14.3562 26.9252 14.6505 26.8673 14.9229 26.75C15.1953 26.6328 15.4397 26.4589 15.6397 26.24C15.951 25.9197 16.3233 25.6652 16.7347 25.4913C17.146 25.3175 17.5881 25.228 18.0347 25.228C18.4813 25.228 18.9233 25.3175 19.3347 25.4913C19.7461 25.6652 20.1184 25.9197 20.4297 26.24C20.622 26.4559 20.8576 26.629 21.1212 26.7478C21.3848 26.8667 21.6705 26.9288 21.9597 26.93C22.2519 26.9297 22.5409 26.8682 22.8079 26.7493C23.0748 26.6305 23.3139 26.4569 23.5097 26.24C23.821 25.9197 24.1933 25.6652 24.6047 25.4913C25.016 25.3175 25.4581 25.228 25.9047 25.228C26.3513 25.228 26.7933 25.3175 27.2047 25.4913C27.6161 25.6652 27.9884 25.9197 28.2997 26.24C28.4935 26.4567 28.7308 26.6301 28.9962 26.749C29.2615 26.8679 29.5489 26.9296 29.8397 26.93C30.1319 26.9297 30.4209 26.8682 30.6879 26.7493C30.9548 26.6305 31.1939 26.4569 31.3897 26.24C31.701 25.9197 32.0733 25.6652 32.4847 25.4913C32.896 25.3175 33.3381 25.228 33.7847 25.228C34.2313 25.228 34.6733 25.3175 35.0847 25.4913C35.4961 25.6652 35.8684 25.9197 36.1797 26.24C36.325 26.3791 36.4786 26.5093 36.6397 26.63L35.8497 27.63C35.6643 27.4977 35.4873 27.3541 35.3197 27.2C35.1239 26.983 34.8848 26.8095 34.6179 26.6906C34.3509 26.5717 34.0619 26.5102 33.7697 26.51C33.4789 26.5104 33.1915 26.572 32.9262 26.6909C32.6608 26.8098 32.4235 26.9832 32.2297 27.2C31.919 27.5236 31.5465 27.7815 31.1342 27.9585C30.7219 28.1354 30.2783 28.2277 29.8297 28.23Z" fill="#616161"/>
<path d="M29.8296 33.4912C29.3848 33.4921 28.9442 33.4041 28.5337 33.2324C28.1233 33.0607 27.7513 32.8087 27.4396 32.4912C27.2439 32.2743 27.0048 32.1007 26.7378 31.9819C26.4708 31.863 26.1819 31.8015 25.8896 31.8012C25.5989 31.8017 25.3115 31.8633 25.0461 31.9822C24.7808 32.1011 24.5435 32.2745 24.3496 32.4912C24.0392 32.8112 23.6678 33.0655 23.2572 33.2392C22.8467 33.4129 22.4054 33.5025 21.9596 33.5025C21.5139 33.5025 21.0726 33.4129 20.6621 33.2392C20.2515 33.0655 19.8801 32.8112 19.5696 32.4912C19.3739 32.2743 19.1348 32.1007 18.8678 31.9819C18.6008 31.863 18.3119 31.8015 18.0196 31.8012C17.7289 31.8017 17.4415 31.8633 17.1761 31.9822C16.9108 32.1011 16.6735 32.2745 16.4796 32.4912C16.1684 32.8115 15.796 33.066 15.3847 33.2399C14.9733 33.4137 14.5312 33.5032 14.0846 33.5032C13.6381 33.5032 13.196 33.4137 12.7846 33.2399C12.3733 33.066 12.0009 32.8115 11.6896 32.4912C11.4939 32.2743 11.2548 32.1007 10.9878 31.9819C10.7208 31.863 10.4319 31.8015 10.1396 31.8012C9.8563 31.8053 9.57683 31.8678 9.31874 31.9848C9.06064 32.1018 8.82946 32.2708 8.63965 32.4812C8.38402 32.7147 8.10601 32.9223 7.80965 33.1012L7.13965 31.9612C7.36372 31.829 7.57176 31.6713 7.75965 31.4912C8.07077 31.1725 8.44249 30.9193 8.85293 30.7464C9.26338 30.5735 9.70427 30.4844 10.1496 30.4844C10.595 30.4844 11.0359 30.5735 11.4464 30.7464C11.8568 30.9193 12.2285 31.1725 12.5396 31.4912C12.7335 31.708 12.9708 31.8814 13.2361 32.0003C13.5015 32.1192 13.7889 32.1808 14.0796 32.1812C14.3728 32.1837 14.6632 32.1244 14.932 32.0072C15.2008 31.8901 15.4419 31.7177 15.6396 31.5012C15.9509 31.181 16.3233 30.9265 16.7346 30.7526C17.146 30.5788 17.5881 30.4892 18.0346 30.4892C18.4812 30.4892 18.9233 30.5788 19.3347 30.7526C19.746 30.9265 20.1184 31.181 20.4296 31.5012C20.622 31.7172 20.8576 31.8902 21.1212 32.0091C21.3848 32.128 21.6705 32.1901 21.9596 32.1912C22.2519 32.191 22.5408 32.1295 22.8078 32.0106C23.0748 31.8918 23.3139 31.7182 23.5096 31.5012C23.8209 31.181 24.1933 30.9265 24.6046 30.7526C25.016 30.5788 25.4581 30.4892 25.9046 30.4892C26.3512 30.4892 26.7933 30.5788 27.2047 30.7526C27.616 30.9265 27.9884 31.181 28.2996 31.5012C28.4938 31.719 28.7319 31.8933 28.9981 32.0126C29.2644 32.1319 29.5529 32.1936 29.8446 32.1936C30.1364 32.1936 30.4249 32.1319 30.6912 32.0126C30.9574 31.8933 31.1955 31.719 31.3896 31.5012C31.7005 31.1854 32.0709 30.9344 32.4795 30.7628C32.888 30.5911 33.3265 30.5022 33.7696 30.5012V31.8012C33.4789 31.8017 33.1915 31.8633 32.9261 31.9822C32.6608 32.1011 32.4235 32.2745 32.2296 32.4912C31.9164 32.8095 31.5428 33.0618 31.1306 33.2336C30.7185 33.4053 30.2761 33.4929 29.8296 33.4912Z" fill="#616161"/>
<path d="M18.9699 13.0209H8.54994L8.35994 12.6909C8.04411 12.1256 7.87882 11.4885 7.87994 10.8409C7.87504 9.94587 8.18459 9.07751 8.75458 8.38739C9.32457 7.69728 10.1188 7.22922 10.9987 7.06492C11.8785 6.90061 12.7881 7.05049 13.5688 7.4884C14.3494 7.9263 14.9515 8.62442 15.2699 9.46093C16.0559 9.50626 16.8087 9.79266 17.426 10.2811C18.0434 10.7696 18.4952 11.4365 18.7199 12.1909L18.9699 13.0209ZM9.33994 11.7209H17.0399C16.8005 11.4175 16.4972 11.1706 16.1515 10.9978C15.8058 10.825 15.4263 10.7304 15.0399 10.7209H14.9399L14.3299 10.8209L14.1999 10.2309C14.0919 9.59568 13.7446 9.02596 13.2294 8.63887C12.7143 8.25178 12.0704 8.07674 11.4302 8.14973C10.79 8.22272 10.202 8.53818 9.78721 9.03129C9.3724 9.52439 9.16225 10.1577 9.19994 10.8009C9.18427 11.1139 9.23188 11.4268 9.33994 11.7209Z" fill="#616161"/>
<path d="M35.9796 13.0209H27.6396L27.8896 12.1809C28.1197 11.4294 28.5749 10.7665 29.1936 10.2819C29.8124 9.7973 30.5649 9.5142 31.3496 9.47086C31.6385 8.712 32.1645 8.06666 32.8496 7.63086L33.5396 8.73086C32.9922 9.08325 32.6045 9.63607 32.4596 10.2709L32.3196 10.8309L31.7496 10.7709H31.5496C31.1622 10.7746 30.7807 10.8667 30.4342 11.0399C30.0876 11.2132 29.7851 11.4632 29.5496 11.7709H35.9596L35.9796 13.0209Z" fill="#616161"/>
</svg>
