<svg width="40" height="40" viewBox="0 0 40 40" fill="none" xmlns="http://www.w3.org/2000/svg">
<path d="M5.4329 11.1334H6.75669L9.13167 37.271C9.17436 37.7446 9.3932 38.1851 9.74493 38.5052C10.0969 38.8253 10.5558 39.002 11.0317 39H28.9743C29.4499 39.002 29.909 38.8252 30.2607 38.5052C30.6125 38.1851 30.8313 37.7446 30.8743 37.271L33.2428 11.1334H34.5666C34.7345 11.1334 34.8957 11.0666 35.0145 10.9479C35.1332 10.8291 35.1999 10.668 35.1999 10.5V7.96667C35.1999 7.12691 34.8663 6.32144 34.2726 5.72734C33.6785 5.13359 32.873 4.79999 32.0332 4.79999H26.3332V2.89998C26.3332 2.39614 26.133 1.91262 25.7768 1.55643C25.4205 1.20024 24.937 1 24.4332 1H15.5665C15.0627 1 14.5791 1.20018 14.223 1.55643C13.8668 1.91269 13.6665 2.3962 13.6665 2.89998V4.79999H7.96649C7.12672 4.79999 6.32126 5.13362 5.72716 5.72734C5.1334 6.32137 4.7998 7.12691 4.7998 7.96667V10.5C4.7998 10.668 4.86653 10.8291 4.98528 10.9479C5.10403 11.0666 5.26496 11.1334 5.4329 11.1334ZM29.6076 37.1574C29.5779 37.4845 29.3028 37.735 28.9742 37.7336H11.0251C10.6965 37.735 10.4214 37.4845 10.3918 37.1574L8.02944 11.1334H31.9696L29.6076 37.1574ZM14.933 2.89998C14.933 2.55023 15.2166 2.26664 15.5663 2.26664H24.433C24.601 2.26664 24.7621 2.33337 24.8809 2.45212C24.9996 2.57087 25.0664 2.73203 25.0664 2.89998V4.79999H14.933V2.89998ZM6.06624 7.96667C6.06624 7.46284 6.26642 6.97932 6.62267 6.62313C6.97893 6.26694 7.46244 6.0667 7.96622 6.0667H32.033C32.5369 6.0667 33.0204 6.26688 33.3766 6.62313C33.7328 6.97939 33.933 7.4629 33.933 7.96667V9.86669H6.06617L6.06624 7.96667Z" fill="#616161"/>
<path d="M24.4326 14.3013C24.4326 13.9515 24.7162 13.668 25.066 13.668V13.668C25.4157 13.668 25.6993 13.9515 25.6993 14.3013V34.5681C25.6993 34.9179 25.4157 35.2014 25.066 35.2014V35.2014C24.7162 35.2014 24.4326 34.9179 24.4326 34.5681V14.3013Z" fill="#c7273b"/>
<path d="M19.3643 14.3013C19.3643 13.9515 19.6478 13.668 19.9976 13.668V13.668C20.3474 13.668 20.6309 13.9515 20.6309 14.3013V34.5681C20.6309 34.9179 20.3474 35.2014 19.9976 35.2014V35.2014C19.6478 35.2014 19.3643 34.9179 19.3643 34.5681V14.3013Z" fill="#c7273b"/>
<path d="M14.2998 14.3013C14.2998 13.9515 14.5834 13.668 14.9331 13.668V13.668C15.2829 13.668 15.5665 13.9515 15.5665 14.3013V34.5698C15.5665 34.9196 15.2829 35.2031 14.9331 35.2031V35.2031C14.5834 35.2031 14.2998 34.9196 14.2998 34.5698V14.3013Z" fill="#c7273b"/>
</svg>
